<svg width="36" height="36" viewBox="0 0 36 36" fill="none" xmlns="http://www.w3.org/2000/svg">
<path d="M10.5 14.5005C10.5 13.4395 10.9215 12.422 11.6717 11.6717C12.422 10.9215 13.4395 10.5 14.5005 10.5H27.4995C28.0249 10.5 28.5451 10.6035 29.0304 10.8045C29.5158 11.0056 29.9568 11.3002 30.3283 11.6717C30.6998 12.0432 30.9944 12.4842 31.1955 12.9696C31.3965 13.4549 31.5 13.9751 31.5 14.5005V27.4995C31.5 28.0249 31.3965 28.5451 31.1955 29.0304C30.9944 29.5158 30.6998 29.9568 30.3283 30.3283C29.9568 30.6998 29.5158 30.9944 29.0304 31.1955C28.5451 31.3965 28.0249 31.5 27.4995 31.5H14.5005C13.9751 31.5 13.4549 31.3965 12.9696 31.1955C12.4842 30.9944 12.0432 30.6998 11.6717 30.3283C11.3002 29.9568 11.0056 29.5158 10.8045 29.0304C10.6035 28.5451 10.5 28.0249 10.5 27.4995V14.5005Z" stroke="white" stroke-width="3" stroke-linecap="round" stroke-linejoin="round"/>
<path d="M6.018 25.1055C5.5575 24.8439 5.17447 24.465 4.90785 24.0073C4.64123 23.5497 4.50051 23.0296 4.5 22.5V7.5C4.5 5.85 5.85 4.5 7.5 4.5H22.5C23.625 4.5 24.237 5.0775 24.75 6" stroke="white" stroke-width="3" stroke-linecap="round" stroke-linejoin="round"/>
</svg>
