<svg width="63" height="65" viewBox="0 0 63 65" fill="none" xmlns="http://www.w3.org/2000/svg">
<path d="M61.6771 22.6381C61.8999 22.3339 61.8924 21.9186 61.659 21.6225L45.7744 1.4803C45.6152 1.2785 45.3724 1.16074 45.1154 1.16074H17.8846C17.6276 1.16074 17.3848 1.2785 17.2256 1.4803L1.34101 21.6225C1.10756 21.9186 1.10014 22.3339 1.32288 22.6381L30.8229 62.9226C30.9809 63.1384 31.2325 63.266 31.5 63.266C31.7675 63.266 32.0191 63.1384 32.1771 62.9226L61.6771 22.6381Z" fill="#FF6480" stroke="#60040F" stroke-width="1.67852" stroke-linecap="round" stroke-linejoin="round"/>
<path d="M45.1154 2L61 22.1422H2L17.8846 2H45.1154Z" fill="#FF8298"/>
<path d="M60.9999 22.1422L31.4999 62.4267V2H45.1153L60.9999 22.1422Z" fill="#D74E67"/>
<path d="M60.9999 22.1422H31.4999V2H45.1153L60.9999 22.1422Z" fill="#E75D76"/>
<path d="M1.99988 22.1422L31.4999 62.4267L16.3717 22.1422L31.4999 2H17.8845L1.99988 22.1422Z" fill="#EE8BBB"/>
<path d="M18.6409 2L1.99988 22.1422H16.3717L31.4999 2H18.6409Z" fill="#FFABD3"/>
<path d="M1.99988 22.1422L31.4999 62.4267L7.29475 22.1422L23.1794 2H17.8845L1.99988 22.1422Z" fill="#FF9BAD"/>
<path d="M17.8846 2L1.99996 22.1422H7.29483L23.1794 2H17.8846Z" fill="#FFD1E7"/>
<path d="M60.9999 22.1422L31.4999 62.4267L46.6281 22.1422L31.4999 2H45.1153L60.9999 22.1422Z" fill="#AC2F6B"/>
<path d="M45.1153 2L60.9999 22.1422H46.6281L31.4999 2H45.1153Z" fill="#C83E80"/>
<path d="M60.9999 22.1422L31.4999 62.4267L55.705 22.1422L39.8204 2H45.1153L60.9999 22.1422Z" fill="#D74E67"/>
<path d="M45.1154 2L61 22.1422H55.7052L39.8206 2H45.1154Z" fill="#E75D76"/>
<path d="M5.02576 20.4639L14.8591 7.875" stroke="white" stroke-width="1.67852" stroke-linecap="round" stroke-linejoin="round"/>
<path d="M19.3975 20.4639L29.2308 7.875" stroke="#FFA4B4" stroke-width="1.67852" stroke-linecap="round" stroke-linejoin="round"/>
<ellipse cx="37.5515" cy="33.0526" rx="0.75641" ry="0.83926" fill="#C63C55"/>
<ellipse cx="39.8206" cy="36.4096" rx="0.75641" ry="0.83926" fill="#C63C55"/>
<ellipse cx="36.795" cy="40.6059" rx="0.75641" ry="0.83926" fill="#C63C55"/>
<ellipse cx="34.5257" cy="42.2846" rx="0.75641" ry="0.83926" fill="#C63C55"/>
<ellipse cx="34.5257" cy="47.3202" rx="0.75641" ry="0.83926" fill="#C63C55"/>
<ellipse cx="35.2822" cy="30.5346" rx="0.75641" ry="0.83926" fill="#C63C55"/>
<ellipse cx="41.3334" cy="28.8563" rx="0.75641" ry="0.83926" fill="#C63C55"/>
<ellipse cx="37.9297" cy="28.4366" rx="1.13462" ry="1.25889" fill="#C63C55"/>
<ellipse cx="36.4168" cy="36.8292" rx="1.13462" ry="1.25889" fill="#C63C55"/>
</svg>
