<svg id="svg" version="1.1" xmlns="http://www.w3.org/2000/svg" xmlns:xlink="http://www.w3.org/1999/xlink" width="400" height="400" viewBox="0, 0, 400,400"><g id="svgg"><path id="path0" d="M199.950 102.500 C 199.136 103.669,197.993 104.918,191.950 111.237 C 190.984 112.247,189.115 114.407,187.797 116.037 C 186.479 117.667,185.186 119.227,184.924 119.505 C 184.662 119.782,183.320 121.582,181.943 123.505 C 180.565 125.427,179.325 127.090,179.189 127.200 C 179.052 127.310,178.143 128.548,177.170 129.951 C 176.196 131.353,175.195 132.793,174.944 133.151 C 173.034 135.870,167.920 144.027,165.006 149.000 C 163.072 152.300,160.975 155.867,160.345 156.927 C 159.715 157.986,159.199 158.976,159.198 159.127 C 159.195 159.431,158.724 160.356,156.920 163.600 C 156.248 164.810,154.930 167.330,153.993 169.200 C 153.056 171.070,151.954 173.255,151.544 174.054 C 150.310 176.467,149.937 176.445,157.800 174.416 C 163.575 172.926,168.849 172.225,174.094 172.249 L 177.989 172.267 178.227 170.833 C 181.454 151.452,186.312 134.946,193.893 117.600 C 194.571 116.049,195.258 114.639,197.177 110.854 C 197.887 109.453,198.729 107.569,199.047 106.667 C 199.365 105.765,200.070 104.268,200.613 103.342 C 202.102 100.801,201.587 100.147,199.950 102.500 M227.384 140.027 C 227.015 140.622,227.442 140.946,228.208 140.652 C 228.562 140.517,228.739 140.224,228.602 140.003 C 228.278 139.478,227.716 139.489,227.384 140.027 M165.800 184.800 C 157.322 186.313,144.771 191.441,141.164 194.865 C 140.854 195.159,139.880 195.932,139.000 196.582 C 137.254 197.872,129.927 205.194,128.530 207.047 C 124.201 212.785,123.261 214.305,120.520 220.000 C 118.347 224.517,116.400 229.804,116.400 231.191 C 116.400 231.662,116.220 231.936,116.000 231.800 C 115.756 231.649,115.600 232.255,115.600 233.353 C 115.600 234.343,115.449 235.246,115.264 235.361 C 114.781 235.659,114.652 238.281,114.650 247.800 C 114.649 258.130,115.343 263.056,117.582 268.600 C 117.760 269.040,118.375 270.660,118.949 272.200 C 122.910 282.821,132.918 295.429,143.800 303.508 C 145.340 304.651,146.806 305.759,147.059 305.970 C 148.861 307.479,155.877 311.385,161.258 313.876 C 168.727 317.332,173.546 319.013,178.800 319.993 C 179.790 320.178,182.220 320.634,184.200 321.006 C 188.074 321.735,207.050 322.167,209.400 321.581 C 210.060 321.416,212.400 320.969,214.600 320.586 C 219.938 319.659,225.258 318.068,230.600 315.803 C 233.020 314.777,235.360 313.833,235.800 313.704 C 236.240 313.575,236.690 313.354,236.800 313.212 C 236.910 313.069,238.260 312.257,239.800 311.407 C 242.423 309.958,248.661 305.996,250.000 304.928 C 250.330 304.665,251.623 303.628,252.873 302.625 C 254.123 301.621,255.260 300.800,255.400 300.800 C 255.913 300.800,268.800 287.540,268.800 287.012 C 268.800 286.712,268.951 286.407,269.137 286.333 C 270.482 285.800,275.768 276.913,278.951 269.833 C 281.530 264.095,282.448 261.097,283.615 254.600 C 284.050 252.180,284.517 249.930,284.653 249.600 C 285.440 247.698,285.750 228.884,285.066 224.600 C 283.473 214.635,282.238 210.201,279.772 205.600 C 279.006 204.170,277.822 201.866,277.142 200.480 C 276.462 199.094,275.856 198.014,275.795 198.080 C 275.622 198.266,276.363 208.817,276.573 209.156 C 276.845 209.597,276.067 219.433,275.556 222.000 C 273.231 233.691,270.750 239.288,265.139 245.499 C 239.901 273.434,181.720 255.021,183.303 219.600 C 183.551 214.060,186.687 205.770,188.877 204.867 C 189.055 204.793,189.209 204.523,189.221 204.267 C 189.336 201.632,202.379 195.093,208.593 194.554 C 209.917 194.439,211.052 194.202,211.115 194.027 C 211.179 193.852,211.764 193.771,212.415 193.846 C 214.504 194.090,213.693 193.255,210.075 191.438 C 205.287 189.033,199.002 187.034,190.600 185.244 C 184.085 183.856,172.271 183.645,165.800 184.800 M236.500 196.998 C 236.003 197.562,235.821 198.400,236.195 198.400 C 236.659 198.400,237.941 197.027,237.756 196.729 C 237.467 196.261,237.076 196.345,236.500 196.998 " stroke="none" fill="#2095c6" fill-rule="evenodd"></path><path id="path1" d="M0.000 200.000 L 0.000 400.000 200.000 400.000 L 400.000 400.000 400.000 200.000 L 400.000 0.000 200.000 0.000 L 0.000 0.000 0.000 200.000 M201.462 78.377 C 202.567 79.246,204.781 82.354,204.793 83.051 C 204.797 83.299,205.088 83.741,205.441 84.034 C 206.019 84.514,209.947 90.136,211.044 92.053 C 211.289 92.480,211.874 93.240,212.344 93.741 C 212.815 94.242,213.200 94.955,213.200 95.326 C 213.200 95.697,213.380 96.000,213.600 96.000 C 213.820 96.000,214.000 96.227,214.000 96.505 C 214.000 96.783,214.804 97.818,215.787 98.805 C 216.770 99.792,217.580 100.917,217.587 101.303 C 217.594 101.690,218.038 102.500,218.573 103.103 C 219.990 104.700,221.527 107.050,222.187 108.631 C 222.504 109.390,223.042 110.118,223.382 110.248 C 223.722 110.379,224.000 110.832,224.000 111.255 C 224.000 111.679,224.266 112.127,224.592 112.252 C 224.917 112.377,225.562 113.092,226.025 113.840 C 226.487 114.588,227.076 115.200,227.333 115.200 C 227.590 115.200,227.828 115.689,227.863 116.287 C 227.898 116.884,228.295 117.672,228.746 118.037 C 229.197 118.402,229.458 118.809,229.326 118.941 C 229.194 119.073,229.381 119.295,229.743 119.433 C 230.130 119.582,230.400 120.133,230.400 120.775 C 230.400 121.528,230.709 122.030,231.400 122.400 C 231.950 122.694,232.400 123.153,232.400 123.419 C 232.400 123.685,232.652 124.112,232.961 124.368 C 233.270 124.624,233.969 125.776,234.514 126.929 C 235.060 128.081,235.798 129.266,236.153 129.561 C 236.509 129.856,236.800 130.275,236.800 130.491 C 236.800 130.708,237.250 131.419,237.800 132.073 C 238.350 132.727,238.800 133.518,238.800 133.831 C 238.800 134.144,238.960 134.400,239.156 134.400 C 239.352 134.400,240.202 135.466,241.045 136.768 C 241.889 138.071,242.746 139.033,242.951 138.907 C 243.156 138.780,243.194 138.886,243.035 139.143 C 242.761 139.587,244.867 143.747,245.594 144.196 C 245.783 144.313,246.065 144.992,246.219 145.705 C 246.374 146.417,246.618 147.090,246.761 147.200 C 247.933 148.101,249.600 150.903,249.600 151.970 C 249.600 152.898,249.835 153.320,250.500 153.588 C 250.995 153.787,251.272 153.961,251.116 153.975 C 250.959 153.989,251.269 154.765,251.803 155.700 C 252.337 156.635,253.053 157.985,253.393 158.700 C 253.733 159.415,254.188 160.000,254.405 160.000 C 254.622 160.000,254.800 160.450,254.800 161.000 C 254.800 161.550,254.977 162.000,255.192 162.000 C 255.408 162.000,255.697 162.495,255.834 163.100 C 256.176 164.611,256.942 166.400,257.248 166.400 C 257.386 166.400,257.604 166.918,257.730 167.552 C 257.857 168.185,258.240 168.982,258.580 169.323 C 258.921 169.664,259.200 170.244,259.200 170.611 C 259.200 171.233,259.981 173.279,260.837 174.900 C 261.041 175.285,261.657 176.815,262.207 178.300 C 262.758 179.785,263.381 181.360,263.593 181.800 C 264.248 183.161,265.214 186.089,265.835 188.600 C 266.162 189.920,266.611 191.679,266.833 192.508 C 267.055 193.338,267.142 194.171,267.025 194.359 C 266.909 194.547,267.205 196.119,267.682 197.851 C 268.679 201.463,268.916 212.991,268.101 218.200 C 267.464 222.270,266.365 226.871,265.809 227.797 C 265.544 228.238,265.095 229.346,264.813 230.258 C 264.531 231.170,263.872 232.377,263.350 232.941 C 262.827 233.504,262.400 234.153,262.400 234.383 C 262.400 234.612,262.085 235.135,261.700 235.544 C 261.315 235.953,260.460 236.987,259.800 237.843 C 259.140 238.698,258.015 239.971,257.300 240.672 C 256.585 241.373,256.000 242.228,256.000 242.573 C 256.000 242.935,255.659 243.200,255.195 243.200 C 254.365 243.200,253.022 243.842,252.113 244.674 C 251.828 244.934,251.191 245.274,250.698 245.428 C 250.204 245.582,249.710 245.836,249.600 245.992 C 249.490 246.148,247.600 246.979,245.400 247.838 L 241.400 249.400 233.600 249.397 C 226.299 249.394,224.495 249.265,222.372 248.591 C 221.903 248.442,221.133 248.271,220.660 248.210 C 219.088 248.008,217.600 247.517,217.600 247.201 C 217.600 247.029,216.935 246.764,216.122 246.612 C 214.810 246.366,211.737 244.970,211.201 244.377 C 211.091 244.255,210.370 243.910,209.600 243.611 C 208.830 243.313,207.930 242.858,207.600 242.602 C 207.270 242.345,205.785 241.437,204.301 240.585 C 202.816 239.732,201.502 238.722,201.381 238.339 C 201.259 237.956,200.543 236.958,199.789 236.122 C 199.035 235.285,198.414 234.394,198.409 234.143 C 198.404 233.891,198.139 233.586,197.821 233.463 C 195.549 232.592,193.591 222.843,194.796 218.402 C 195.801 214.695,200.493 208.852,203.500 207.562 C 204.215 207.256,204.800 206.869,204.800 206.702 C 204.800 206.536,205.046 206.400,205.346 206.400 C 205.646 206.400,206.350 206.040,206.909 205.600 C 207.469 205.160,208.213 204.800,208.563 204.800 C 208.913 204.800,209.200 204.635,209.200 204.433 C 209.200 204.231,210.055 203.747,211.100 203.357 C 212.145 202.966,213.360 202.425,213.800 202.153 C 214.240 201.881,215.275 201.536,216.100 201.385 C 216.925 201.234,217.600 200.980,217.600 200.820 C 217.600 200.659,218.905 200.303,220.500 200.028 C 222.095 199.753,223.850 199.334,224.400 199.097 C 224.950 198.861,226.840 198.562,228.600 198.433 C 231.942 198.190,232.863 197.158,230.992 195.756 C 230.667 195.512,230.399 195.152,230.397 194.956 C 230.396 194.760,229.766 194.172,228.997 193.648 C 228.229 193.125,227.600 192.540,227.600 192.348 C 227.600 192.157,227.330 192.000,227.000 192.000 C 226.670 192.000,226.400 191.830,226.400 191.623 C 226.400 191.415,225.860 190.926,225.200 190.536 C 224.540 190.146,224.000 189.608,224.000 189.341 C 224.000 189.073,223.606 188.729,223.123 188.576 C 222.641 188.423,221.696 187.766,221.023 187.116 C 220.351 186.466,219.305 185.752,218.700 185.528 C 218.095 185.305,217.600 184.973,217.600 184.792 C 217.600 184.610,216.925 184.241,216.100 183.970 C 215.275 183.700,214.023 183.041,213.317 182.505 C 212.612 181.970,211.847 181.647,211.617 181.789 C 211.388 181.931,211.200 181.857,211.200 181.624 C 211.200 181.391,210.911 181.200,210.558 181.200 C 210.204 181.200,209.561 180.750,209.129 180.200 C 208.645 179.585,207.930 179.197,207.271 179.191 C 206.682 179.186,205.750 178.830,205.200 178.400 C 204.650 177.970,203.771 177.614,203.246 177.609 C 202.178 177.599,199.215 176.812,198.600 176.376 C 198.380 176.220,196.850 175.869,195.200 175.596 C 193.550 175.324,192.051 174.898,191.870 174.650 C 191.633 174.327,191.477 174.354,191.321 174.745 C 191.145 175.186,191.042 175.191,190.784 174.773 C 190.421 174.187,189.902 174.066,186.785 173.842 C 185.567 173.755,183.841 173.465,182.950 173.198 C 180.646 172.507,165.744 173.262,166.228 174.045 C 166.348 174.240,165.852 174.415,165.124 174.432 C 160.182 174.554,152.009 176.793,146.094 179.647 C 143.292 180.998,140.910 182.215,140.800 182.352 C 140.690 182.488,139.565 183.125,138.300 183.767 C 137.035 184.408,136.000 185.083,136.000 185.267 C 136.000 185.450,135.621 185.600,135.158 185.600 C 134.695 185.600,133.519 186.138,132.544 186.796 C 131.039 187.812,130.735 187.896,130.528 187.356 C 130.393 187.006,130.461 186.602,130.678 186.460 C 130.895 186.317,131.359 185.349,131.709 184.309 C 132.059 183.269,132.787 181.829,133.326 181.109 C 133.866 180.389,134.436 179.377,134.594 178.859 C 134.751 178.342,135.762 176.542,136.840 174.859 C 137.918 173.177,138.800 171.653,138.800 171.473 C 138.800 171.294,139.250 170.557,139.800 169.836 C 140.350 169.114,140.800 168.237,140.800 167.886 C 140.800 167.535,140.990 167.130,141.221 166.987 C 141.453 166.844,142.054 165.798,142.557 164.663 C 143.059 163.528,143.770 162.353,144.135 162.051 C 144.501 161.749,144.800 161.292,144.800 161.036 C 144.800 160.780,145.333 159.947,145.984 159.185 C 146.635 158.423,147.175 157.558,147.184 157.263 C 147.193 156.968,147.560 156.269,148.000 155.709 C 148.440 155.150,148.800 154.446,148.800 154.146 C 148.800 153.846,148.938 153.600,149.106 153.600 C 149.274 153.600,149.735 152.854,150.130 151.942 C 150.842 150.297,152.724 147.523,153.300 147.267 C 153.465 147.193,153.600 146.810,153.600 146.416 C 153.600 146.021,153.850 145.490,154.156 145.236 C 154.462 144.983,155.088 143.901,155.547 142.834 C 156.007 141.766,156.656 140.787,156.991 140.659 C 157.326 140.530,157.600 140.059,157.600 139.613 C 157.600 139.166,157.780 138.800,158.000 138.800 C 158.220 138.800,158.400 138.573,158.400 138.296 C 158.400 138.019,158.760 137.568,159.200 137.293 C 159.640 137.018,160.000 136.525,160.000 136.197 C 160.000 135.868,160.180 135.600,160.400 135.600 C 160.620 135.600,160.800 135.330,160.800 135.000 C 160.800 134.670,160.980 134.400,161.200 134.400 C 161.420 134.400,161.600 134.150,161.600 133.845 C 161.600 133.540,162.230 132.374,163.000 131.255 C 163.770 130.135,164.403 129.080,164.407 128.910 C 164.411 128.739,164.861 128.176,165.407 127.658 C 165.953 127.140,166.400 126.375,166.400 125.958 C 166.400 125.541,166.565 125.200,166.767 125.200 C 166.969 125.200,167.527 124.565,168.007 123.789 C 168.486 123.014,169.086 122.159,169.339 121.889 C 169.593 121.620,170.208 120.565,170.706 119.544 C 171.205 118.523,171.880 117.466,172.206 117.195 C 172.533 116.924,172.800 116.448,172.800 116.138 C 172.800 115.829,173.070 115.471,173.400 115.345 C 173.730 115.218,174.000 114.945,174.000 114.738 C 174.000 114.531,174.630 113.377,175.400 112.173 C 176.170 110.969,176.800 109.817,176.800 109.612 C 176.800 109.407,177.038 109.096,177.328 108.920 C 178.200 108.391,181.064 104.350,182.231 102.000 C 182.832 100.790,183.835 99.303,184.462 98.697 C 185.088 98.090,185.600 97.325,185.600 96.997 C 185.600 96.668,185.776 96.400,185.992 96.400 C 186.207 96.400,186.772 95.635,187.246 94.700 C 187.720 93.765,188.228 92.910,188.375 92.800 C 188.522 92.690,189.149 91.925,189.769 91.100 C 190.388 90.275,191.144 89.600,191.447 89.600 C 191.751 89.600,192.000 89.253,192.000 88.828 C 192.000 87.956,195.031 83.200,195.587 83.200 C 195.786 83.200,196.353 82.480,196.848 81.600 C 197.343 80.720,197.894 80.000,198.074 80.000 C 198.253 80.000,198.400 79.752,198.400 79.449 C 198.400 79.004,199.774 77.707,200.337 77.621 C 200.412 77.609,200.919 77.950,201.462 78.377 M188.600 184.053 C 190.360 184.299,192.028 184.683,192.306 184.904 C 192.584 185.126,194.074 185.398,195.616 185.508 C 197.158 185.619,198.516 185.864,198.634 186.054 C 198.751 186.245,199.297 186.400,199.847 186.400 C 200.397 186.400,200.748 186.560,200.628 186.755 C 200.407 187.112,202.241 187.627,203.874 187.666 C 204.355 187.678,204.834 187.913,204.940 188.187 C 205.045 188.462,205.854 188.802,206.737 188.944 C 207.621 189.085,208.589 189.447,208.890 189.747 C 209.191 190.048,209.818 190.415,210.283 190.563 C 210.747 190.710,211.346 191.094,211.613 191.415 C 211.880 191.737,212.408 192.000,212.787 192.000 C 214.756 192.000,215.322 194.575,213.367 194.638 C 210.244 194.739,200.303 197.153,199.420 198.025 C 199.211 198.231,198.648 198.400,198.169 198.400 C 197.690 198.400,197.074 198.670,196.800 199.000 C 196.526 199.330,196.459 199.603,196.651 199.606 C 196.843 199.609,196.617 199.834,196.149 200.106 C 195.681 200.378,194.894 200.843,194.400 201.140 C 193.647 201.593,193.554 201.593,193.820 201.140 C 194.188 200.514,192.567 201.822,191.516 203.000 C 189.749 204.980,189.163 205.815,188.527 207.257 C 188.152 208.105,187.701 208.800,187.523 208.800 C 187.345 208.800,187.200 209.081,187.200 209.424 C 187.200 209.767,187.020 209.936,186.800 209.800 C 186.580 209.664,186.400 209.934,186.400 210.400 C 186.400 210.866,186.239 211.148,186.042 211.026 C 185.845 210.904,185.593 211.478,185.482 212.302 C 185.372 213.126,185.066 214.610,184.802 215.600 C 184.256 217.654,184.585 227.800,185.198 227.800 C 185.230 227.800,185.343 228.509,185.447 229.375 C 185.636 230.937,187.525 234.799,188.100 234.800 C 188.265 234.800,188.400 235.072,188.400 235.404 C 188.400 236.459,193.412 243.200,194.195 243.200 C 194.362 243.200,195.192 243.987,196.039 244.949 C 196.886 245.912,198.211 246.999,198.984 247.366 C 199.757 247.732,200.578 248.385,200.809 248.816 C 201.055 249.277,201.644 249.600,202.238 249.600 C 202.806 249.600,203.140 249.774,203.001 249.998 C 202.866 250.217,203.215 250.606,203.777 250.863 C 204.340 251.119,204.800 251.480,204.800 251.664 C 204.800 251.849,205.065 252.000,205.388 252.000 C 205.712 252.000,207.017 252.463,208.288 253.030 C 209.560 253.596,211.230 254.325,212.000 254.649 C 212.770 254.973,213.713 255.410,214.095 255.619 C 214.477 255.829,215.386 256.000,216.115 256.000 C 216.844 256.000,217.630 256.190,217.862 256.422 C 218.094 256.654,219.345 257.005,220.642 257.202 C 221.939 257.399,224.080 257.753,225.400 257.989 C 230.745 258.946,244.688 257.872,246.169 256.391 C 246.384 256.176,246.952 256.000,247.432 256.000 C 247.911 256.000,249.340 255.376,250.607 254.613 C 251.874 253.850,253.550 253.014,254.333 252.756 C 255.115 252.498,255.945 252.138,256.177 251.957 C 262.295 247.181,266.025 243.636,267.423 241.269 C 267.835 240.571,268.314 240.000,268.486 240.000 C 268.659 240.000,268.800 239.782,268.800 239.516 C 268.800 239.250,269.326 237.945,269.969 236.616 C 271.167 234.142,272.051 232.111,272.239 231.400 C 272.297 231.180,272.530 230.460,272.757 229.800 C 274.784 223.898,275.247 219.837,275.220 208.172 C 275.202 200.771,275.334 196.800,275.596 196.800 C 275.818 196.800,276.002 196.935,276.004 197.100 C 276.007 197.265,276.708 198.131,277.563 199.025 C 278.418 199.919,279.418 201.535,279.785 202.618 C 280.153 203.700,280.628 204.693,280.840 204.825 C 281.053 204.956,281.369 205.949,281.542 207.032 C 281.822 208.778,282.569 210.625,283.230 211.200 C 285.355 213.051,287.526 234.705,286.417 243.000 C 286.182 244.760,285.997 246.773,286.006 247.474 C 286.021 248.701,285.438 251.728,284.135 257.192 C 283.595 259.453,282.708 262.268,281.168 266.600 C 280.934 267.260,280.378 268.880,279.934 270.200 C 279.489 271.520,278.895 272.870,278.612 273.200 C 278.330 273.530,277.863 274.468,277.574 275.285 C 277.286 276.101,276.634 277.219,276.125 277.767 C 275.616 278.316,275.200 278.961,275.200 279.199 C 275.200 279.438,275.015 279.851,274.789 280.117 C 274.562 280.383,273.529 281.950,272.493 283.600 C 271.457 285.250,270.202 286.981,269.705 287.446 C 269.207 287.911,268.800 288.402,268.800 288.536 C 268.800 288.671,267.899 289.725,266.799 290.879 C 265.698 292.033,264.696 293.298,264.572 293.689 C 264.448 294.080,264.168 294.400,263.951 294.400 C 263.734 294.400,262.496 295.480,261.200 296.800 C 259.904 298.120,258.675 299.200,258.469 299.200 C 258.262 299.200,257.999 299.560,257.884 300.000 C 257.769 300.440,257.387 300.800,257.036 300.800 C 256.685 300.800,255.543 301.620,254.499 302.623 C 253.454 303.626,251.925 304.800,251.100 305.231 C 250.275 305.663,249.600 306.244,249.600 306.523 C 249.600 306.802,249.195 307.058,248.700 307.093 C 248.205 307.128,247.339 307.704,246.775 308.373 C 246.212 309.042,245.177 309.789,244.475 310.034 C 243.774 310.278,243.200 310.641,243.200 310.839 C 243.200 311.038,242.921 311.200,242.580 311.200 C 241.720 311.200,239.467 312.394,239.080 313.054 C 238.904 313.354,238.334 313.600,237.813 313.600 C 237.293 313.600,236.807 313.735,236.733 313.900 C 236.592 314.219,233.513 315.633,229.146 317.386 C 226.564 318.422,223.457 319.320,220.200 319.971 C 219.320 320.147,218.121 320.484,217.536 320.722 C 212.875 322.611,186.705 324.066,185.637 322.495 C 185.507 322.303,184.050 321.903,182.400 321.607 C 180.750 321.310,178.950 320.900,178.400 320.695 C 177.850 320.490,176.500 320.180,175.400 320.005 C 174.300 319.830,172.454 319.322,171.297 318.877 C 170.140 318.431,169.286 318.215,169.398 318.396 C 169.510 318.577,169.243 318.632,168.805 318.517 C 168.367 318.403,168.108 318.150,168.228 317.955 C 168.349 317.760,168.068 317.600,167.604 317.600 C 167.140 317.600,166.273 317.348,165.677 317.040 C 165.081 316.732,164.235 316.417,163.797 316.340 C 163.359 316.263,162.651 315.885,162.225 315.500 C 161.798 315.115,161.123 314.800,160.725 314.800 C 160.326 314.800,160.000 314.530,160.000 314.200 C 160.000 313.822,159.619 313.600,158.971 313.600 C 158.406 313.600,157.678 313.335,157.353 313.011 C 157.029 312.686,156.052 312.229,155.182 311.995 C 154.312 311.761,153.600 311.410,153.600 311.216 C 153.600 311.021,152.925 310.651,152.100 310.393 C 151.275 310.135,150.240 309.522,149.800 309.030 C 148.893 308.016,145.356 305.600,144.780 305.600 C 144.571 305.600,144.400 305.464,144.400 305.298 C 144.400 305.131,143.859 304.756,143.198 304.463 C 142.536 304.170,142.097 303.766,142.221 303.565 C 142.346 303.364,142.283 303.200,142.083 303.200 C 141.883 303.200,141.154 302.660,140.463 302.000 C 139.772 301.340,138.936 300.800,138.604 300.800 C 138.272 300.800,138.000 300.530,138.000 300.200 C 138.000 299.870,137.849 299.600,137.664 299.600 C 137.051 299.600,128.000 290.064,128.000 289.419 C 128.000 289.259,127.634 288.829,127.186 288.464 C 126.330 287.766,122.714 282.181,121.900 280.300 C 121.639 279.695,121.284 279.200,121.112 279.200 C 120.941 279.200,120.800 278.930,120.800 278.600 C 120.800 278.270,120.544 278.000,120.231 278.000 C 119.918 278.000,119.448 277.325,119.187 276.500 C 118.926 275.675,118.308 274.010,117.814 272.800 C 116.645 269.938,115.365 265.088,114.414 259.919 C 114.184 258.665,113.841 257.225,113.652 256.719 C 112.568 253.815,113.519 235.121,114.816 233.824 C 115.027 233.613,115.200 232.877,115.200 232.188 C 115.200 231.500,115.666 229.638,116.236 228.051 C 116.806 226.464,117.172 224.903,117.049 224.583 C 116.915 224.235,117.063 224.000,117.413 224.000 C 117.736 224.000,118.000 223.728,118.000 223.395 C 118.000 223.062,118.162 222.477,118.359 222.095 C 118.556 221.713,119.049 220.590,119.454 219.600 C 119.858 218.610,120.507 217.451,120.895 217.025 C 121.283 216.598,121.600 215.841,121.600 215.343 C 121.600 214.844,122.005 214.010,122.500 213.488 C 124.106 211.796,124.800 210.803,124.800 210.195 C 124.800 209.868,125.520 208.880,126.400 208.000 C 127.280 207.120,128.000 206.246,128.000 206.057 C 128.000 205.868,129.440 204.223,131.200 202.400 C 132.960 200.577,134.400 198.932,134.400 198.743 C 134.400 198.554,134.559 198.445,134.753 198.500 C 134.947 198.555,136.014 197.745,137.124 196.700 C 138.234 195.655,139.300 194.800,139.493 194.800 C 139.687 194.800,140.465 194.339,141.222 193.777 C 141.980 193.214,143.500 192.284,144.600 191.711 C 148.360 189.753,151.799 188.102,152.700 187.824 C 153.195 187.671,153.600 187.366,153.600 187.146 C 153.600 186.920,153.970 186.864,154.450 187.016 C 154.972 187.182,155.205 187.132,155.055 186.888 C 154.920 186.670,155.171 186.396,155.614 186.281 C 156.056 186.165,156.500 186.019,156.601 185.957 C 156.701 185.895,157.732 185.723,158.891 185.575 C 160.051 185.428,162.323 185.011,163.939 184.651 C 165.556 184.290,168.690 183.907,170.904 183.800 C 173.117 183.692,175.015 183.519,175.120 183.414 C 175.428 183.105,185.119 183.565,188.600 184.053 " stroke="none" fill="#040404" fill-rule="evenodd"></path><path id="path2" d="M199.062 79.931 C 198.698 80.334,198.400 80.919,198.400 81.231 C 198.399 81.544,197.994 82.280,197.500 82.866 C 197.005 83.453,196.285 84.310,195.900 84.771 C 195.515 85.232,195.200 85.768,195.200 85.962 C 195.200 86.156,194.930 86.418,194.600 86.545 C 194.270 86.671,194.000 87.127,194.000 87.558 C 194.000 87.989,193.550 88.696,193.000 89.129 C 192.450 89.561,192.000 90.173,192.000 90.488 C 192.000 90.803,191.533 91.497,190.962 92.030 C 190.391 92.564,189.474 93.765,188.924 94.700 C 188.374 95.635,187.761 96.400,187.562 96.400 C 187.363 96.400,187.200 96.636,187.200 96.925 C 187.200 97.213,186.840 97.836,186.400 98.308 C 185.960 98.780,185.600 99.271,185.600 99.399 C 185.600 99.670,184.036 101.925,183.291 102.727 C 183.011 103.029,182.491 103.844,182.136 104.538 C 181.781 105.232,181.020 106.431,180.445 107.202 C 179.870 107.972,179.220 108.903,179.000 109.269 C 178.780 109.635,177.925 110.925,177.100 112.135 C 176.275 113.345,175.600 114.530,175.600 114.768 C 175.600 115.006,175.420 115.200,175.200 115.200 C 174.980 115.200,174.800 115.439,174.800 115.730 C 174.800 116.022,174.350 116.683,173.800 117.200 C 173.250 117.717,172.800 118.283,172.800 118.459 C 172.800 118.635,171.495 120.678,169.900 122.999 C 166.757 127.573,166.890 127.369,163.450 132.963 C 162.157 135.066,160.852 136.991,160.550 137.242 C 160.247 137.493,160.000 137.959,160.000 138.278 C 160.000 138.596,159.775 139.092,159.500 139.380 C 158.637 140.281,155.582 145.228,155.079 146.538 C 154.939 146.902,154.549 147.200,154.213 147.200 C 153.861 147.200,153.600 147.550,153.600 148.021 C 153.600 148.473,153.150 149.505,152.600 150.314 C 152.050 151.123,151.600 152.001,151.600 152.264 C 151.600 152.527,151.353 152.990,151.052 153.291 C 150.750 153.592,150.184 154.460,149.793 155.220 C 149.401 155.979,148.688 157.140,148.207 157.800 C 147.726 158.460,146.840 160.035,146.237 161.300 C 145.634 162.565,144.974 163.600,144.771 163.600 C 144.567 163.600,144.400 163.870,144.400 164.200 C 144.400 164.530,144.220 164.800,144.000 164.800 C 143.780 164.800,143.600 165.160,143.600 165.600 C 143.600 166.040,143.420 166.400,143.200 166.400 C 142.980 166.400,142.800 166.656,142.800 166.969 C 142.800 167.282,142.395 168.047,141.900 168.669 C 141.022 169.773,140.711 170.291,138.705 174.000 C 137.428 176.360,135.892 178.949,135.618 179.200 C 135.080 179.694,134.400 181.262,134.400 182.009 C 134.400 182.459,134.109 183.272,133.754 183.814 C 133.322 184.474,133.264 184.800,133.580 184.800 C 134.120 184.800,135.701 184.018,136.000 183.603 C 136.110 183.450,138.180 182.379,140.600 181.222 C 143.020 180.066,145.900 178.682,147.000 178.147 C 148.100 177.612,149.810 176.928,150.800 176.627 C 151.935 176.282,152.267 176.064,151.700 176.040 C 150.610 175.992,150.603 175.895,151.544 174.054 C 151.954 173.255,153.056 171.070,153.993 169.200 C 154.930 167.330,156.248 164.810,156.920 163.600 C 158.724 160.356,159.195 159.431,159.198 159.127 C 159.199 158.976,159.715 157.986,160.345 156.927 C 160.975 155.867,163.072 152.300,165.006 149.000 C 167.920 144.027,173.034 135.870,174.944 133.151 C 175.195 132.793,176.196 131.353,177.170 129.951 C 178.143 128.548,179.048 127.310,179.181 127.200 C 179.313 127.090,180.610 125.361,182.062 123.359 C 183.515 121.356,185.070 119.286,185.517 118.759 C 185.965 118.231,187.382 116.538,188.666 114.996 C 189.950 113.453,192.620 110.511,194.600 108.458 C 196.580 106.404,198.560 104.266,199.000 103.707 C 199.440 103.147,200.100 102.309,200.466 101.844 C 201.597 100.409,201.728 101.440,200.648 103.282 C 200.086 104.241,199.365 105.765,199.047 106.667 C 198.729 107.569,197.887 109.453,197.177 110.854 C 195.258 114.639,194.571 116.049,193.893 117.600 C 187.374 132.515,182.613 147.621,179.837 162.200 C 177.990 171.900,177.896 172.511,178.291 172.267 C 178.479 172.151,180.336 172.279,182.417 172.551 C 184.497 172.824,187.370 173.016,188.800 172.978 C 191.599 172.905,192.810 173.220,191.196 173.601 C 190.648 173.731,191.512 173.857,193.115 173.882 C 194.718 173.906,196.248 174.092,196.515 174.293 C 196.782 174.495,198.710 175.172,200.800 175.798 C 202.890 176.424,205.855 177.535,207.389 178.268 C 208.923 179.001,210.393 179.600,210.655 179.600 C 210.918 179.600,211.193 179.735,211.267 179.900 C 211.340 180.065,212.650 180.830,214.177 181.600 C 215.705 182.370,217.731 183.585,218.681 184.300 C 219.630 185.015,220.514 185.600,220.646 185.600 C 220.777 185.600,221.380 186.005,221.987 186.500 C 222.593 186.995,223.509 187.670,224.023 188.000 C 224.889 188.556,226.805 190.223,229.656 192.900 C 230.300 193.505,231.049 194.000,231.319 194.000 C 231.589 194.000,231.988 194.338,232.205 194.750 C 232.422 195.163,232.932 196.087,233.338 196.803 C 234.242 198.400,233.833 198.785,231.228 198.794 C 230.254 198.797,228.904 198.968,228.228 199.173 C 226.354 199.742,224.084 200.322,221.000 201.018 C 219.460 201.367,217.840 201.806,217.400 201.996 C 216.960 202.185,214.922 203.029,212.872 203.870 C 210.822 204.712,208.832 205.670,208.450 206.000 C 207.644 206.697,206.449 207.489,205.618 207.877 C 204.921 208.202,203.804 209.074,202.512 210.300 C 201.990 210.795,201.387 211.200,201.172 211.200 C 200.956 211.200,200.615 211.635,200.413 212.166 C 200.211 212.697,199.676 213.249,199.223 213.393 C 198.770 213.536,198.400 213.912,198.400 214.227 C 198.400 214.542,198.253 214.800,198.074 214.800 C 197.413 214.800,195.317 219.454,195.522 220.464 C 195.552 220.609,195.612 221.869,195.656 223.264 C 195.700 224.659,195.862 225.980,196.016 226.200 C 196.351 226.679,197.152 229.113,197.402 230.412 C 197.501 230.923,197.765 231.525,197.991 231.751 C 198.216 231.976,198.400 232.484,198.400 232.880 C 198.400 233.276,198.545 233.600,198.723 233.600 C 198.901 233.600,199.576 234.316,200.223 235.191 C 200.870 236.065,201.547 236.785,201.726 236.791 C 201.905 236.796,202.506 237.340,203.061 238.000 C 203.617 238.660,204.227 239.200,204.418 239.200 C 204.843 239.200,207.699 241.113,207.999 241.599 C 208.455 242.336,213.460 244.543,214.694 244.551 C 215.476 244.557,215.793 244.684,215.494 244.874 C 215.141 245.098,215.191 245.189,215.667 245.194 C 216.034 245.197,216.664 245.307,217.067 245.438 C 217.692 245.641,217.712 245.606,217.200 245.200 C 216.688 244.794,216.708 244.759,217.333 244.962 C 217.736 245.093,218.241 245.200,218.456 245.200 C 218.671 245.200,218.720 245.406,218.564 245.658 C 218.366 245.979,218.589 246.039,219.309 245.859 C 220.658 245.520,221.758 245.928,221.226 246.569 C 220.930 246.925,221.229 247.025,222.413 246.964 C 223.283 246.920,223.905 247.030,223.794 247.209 C 223.571 247.570,224.615 247.820,228.200 248.266 C 230.464 248.548,230.521 248.580,229.200 248.838 C 228.430 248.989,229.330 249.030,231.200 248.930 C 238.997 248.514,247.137 246.449,251.831 243.696 C 253.417 242.766,259.991 236.165,260.889 234.600 C 261.267 233.940,261.791 233.040,262.052 232.600 C 263.436 230.266,264.726 227.396,265.423 225.100 C 265.740 224.055,266.282 222.275,266.626 221.145 C 268.641 214.532,267.527 195.313,264.809 189.800 C 264.592 189.360,264.253 188.280,264.056 187.400 C 263.454 184.715,261.830 179.412,261.544 179.200 C 261.396 179.089,260.831 177.739,260.288 176.200 C 259.745 174.660,258.675 172.050,257.912 170.400 C 257.148 168.750,256.198 166.635,255.801 165.700 C 255.403 164.765,254.926 164.000,254.739 164.000 C 254.553 164.000,254.400 163.460,254.400 162.800 C 254.400 162.000,254.200 161.600,253.800 161.600 C 253.470 161.600,253.199 161.285,253.199 160.900 C 253.198 160.515,252.871 159.660,252.471 159.000 C 252.072 158.340,250.913 156.254,249.894 154.364 C 248.875 152.474,247.109 149.414,245.968 147.564 C 244.827 145.714,243.582 143.660,243.202 143.000 C 242.822 142.340,241.618 140.450,240.527 138.800 C 239.436 137.150,238.425 135.530,238.280 135.200 C 238.135 134.870,237.608 133.962,237.108 133.183 C 236.609 132.403,235.751 131.053,235.203 130.183 C 234.655 129.312,233.260 127.160,232.104 125.400 C 230.948 123.640,229.830 121.930,229.620 121.600 C 229.410 121.270,227.850 118.930,226.153 116.400 C 224.457 113.870,222.107 110.360,220.931 108.600 C 219.756 106.840,218.525 105.115,218.197 104.766 C 217.869 104.418,217.600 103.743,217.600 103.266 C 217.600 102.755,217.349 102.400,216.987 102.400 C 216.650 102.400,216.243 102.085,216.084 101.700 C 215.494 100.281,210.280 92.729,209.749 92.525 C 209.447 92.409,209.200 92.151,209.200 91.951 C 209.200 91.442,204.212 83.680,203.576 83.200 C 203.431 83.090,203.026 82.442,202.676 81.759 C 202.152 80.735,200.472 79.200,199.876 79.200 C 199.792 79.200,199.426 79.529,199.062 79.931 M228.602 140.003 C 228.739 140.224,228.562 140.517,228.208 140.652 C 227.442 140.946,227.015 140.622,227.384 140.027 C 227.716 139.489,228.278 139.478,228.602 140.003 M170.296 172.237 C 170.079 172.455,164.475 173.172,162.600 173.222 C 161.835 173.243,161.832 173.262,162.544 173.666 C 163.070 173.965,163.572 173.959,164.262 173.644 C 164.799 173.400,165.994 173.185,166.919 173.166 C 167.843 173.147,170.310 172.901,172.400 172.620 L 176.200 172.109 173.367 172.054 C 171.808 172.024,170.427 172.107,170.296 172.237 M155.066 175.003 C 152.953 175.584,151.861 176.247,153.801 175.771 C 156.001 175.232,158.207 174.479,157.600 174.475 C 157.270 174.473,156.130 174.711,155.066 175.003 M205.800 194.989 C 204.920 195.279,204.560 195.527,205.000 195.540 C 205.440 195.553,206.340 195.317,207.000 195.014 C 208.525 194.316,207.882 194.303,205.800 194.989 M237.756 196.729 C 237.941 197.027,236.659 198.400,236.195 198.400 C 235.821 198.400,236.003 197.562,236.500 196.998 C 237.076 196.345,237.467 196.261,237.756 196.729 M135.170 199.453 C 134.245 200.456,134.241 200.480,135.092 199.961 C 135.583 199.662,136.072 199.188,136.180 198.909 C 136.466 198.162,136.252 198.277,135.170 199.453 M277.636 201.607 C 278.342 202.931,278.982 203.952,279.058 203.875 C 279.231 203.702,276.812 199.200,276.546 199.200 C 276.440 199.200,276.930 200.283,277.636 201.607 M132.575 202.100 L 131.400 203.400 132.700 202.225 C 133.912 201.130,134.184 200.800,133.875 200.800 C 133.806 200.800,133.221 201.385,132.575 202.100 M276.124 215.000 C 276.126 216.320,276.201 216.812,276.290 216.093 C 276.379 215.374,276.377 214.294,276.286 213.693 C 276.195 213.092,276.122 213.680,276.124 215.000 M283.202 214.633 C 283.203 215.055,283.367 216.030,283.566 216.800 C 283.764 217.570,284.042 218.880,284.184 219.711 C 284.325 220.542,284.589 221.130,284.771 221.018 C 284.953 220.906,284.757 219.334,284.336 217.525 C 283.555 214.172,283.198 213.262,283.202 214.633 M120.678 219.005 C 120.312 219.772,120.095 220.400,120.196 220.400 C 120.470 220.400,121.684 217.951,121.501 217.768 C 121.414 217.681,121.044 218.238,120.678 219.005 M284.893 222.800 C 284.893 223.570,284.975 223.885,285.076 223.500 C 285.176 223.115,285.176 222.485,285.076 222.100 C 284.975 221.715,284.893 222.030,284.893 222.800 M285.200 225.776 C 285.200 226.313,285.347 226.844,285.528 226.955 C 285.708 227.067,285.777 226.627,285.682 225.979 C 285.472 224.549,285.200 224.435,285.200 225.776 M285.746 233.000 C 285.747 235.200,285.814 236.049,285.895 234.887 C 285.976 233.724,285.976 231.924,285.893 230.887 C 285.811 229.849,285.745 230.800,285.746 233.000 M115.180 233.890 C 115.071 234.819,115.133 235.427,115.320 235.240 C 115.506 235.054,115.596 234.294,115.519 233.551 C 115.383 232.233,115.375 232.242,115.180 233.890 M272.400 232.919 C 272.400 233.057,272.038 234.089,271.595 235.212 C 271.153 236.334,270.959 237.149,271.164 237.022 C 271.702 236.689,272.963 233.230,272.658 232.924 C 272.516 232.783,272.400 232.780,272.400 232.919 M269.600 238.800 C 269.130 239.460,268.836 240.000,268.946 240.000 C 269.056 240.000,269.530 239.460,270.000 238.800 C 270.470 238.140,270.764 237.600,270.654 237.600 C 270.544 237.600,270.070 238.140,269.600 238.800 M190.016 240.163 C 190.768 241.209,191.556 242.173,191.767 242.303 C 191.978 242.433,191.535 241.684,190.784 240.637 C 190.032 239.591,189.244 238.627,189.033 238.497 C 188.822 238.367,189.265 239.116,190.016 240.163 M114.080 248.000 C 114.043 252.290,114.144 256.009,114.306 256.264 C 114.468 256.519,114.552 253.909,114.494 250.464 C 114.326 240.553,114.154 239.527,114.080 248.000 M285.649 241.800 C 285.616 242.240,285.496 243.050,285.383 243.600 L 285.177 244.600 285.606 243.619 C 285.842 243.079,285.961 242.269,285.872 241.819 C 285.713 241.021,285.707 241.021,285.649 241.800 M194.400 244.944 C 195.390 246.000,196.740 247.240,197.400 247.697 C 198.790 248.661,198.679 248.544,195.200 245.384 C 192.889 243.285,192.800 243.236,194.400 244.944 M265.100 245.018 C 264.275 245.936,263.600 246.799,263.600 246.935 C 263.600 247.071,264.346 246.372,265.258 245.383 C 266.171 244.393,266.846 243.531,266.758 243.466 C 266.671 243.402,265.925 244.100,265.100 245.018 M284.914 246.600 C 284.917 247.700,284.995 248.103,285.087 247.495 C 285.179 246.886,285.177 245.986,285.082 245.495 C 284.987 245.003,284.911 245.500,284.914 246.600 M284.659 249.505 C 284.330 250.037,283.538 255.272,283.754 255.488 C 283.856 255.590,284.057 254.802,284.200 253.737 C 284.342 252.671,284.627 251.276,284.831 250.635 C 285.197 249.489,285.093 248.803,284.659 249.505 M200.400 249.701 C 200.400 249.955,203.496 252.000,203.880 252.000 C 204.044 252.000,203.823 251.758,203.389 251.461 C 201.481 250.159,200.400 249.522,200.400 249.701 M206.000 252.997 C 206.000 253.268,209.249 254.884,209.430 254.703 C 209.514 254.619,208.776 254.159,207.791 253.681 C 206.806 253.202,206.000 252.894,206.000 252.997 M253.900 253.829 C 252.349 254.670,252.525 254.961,254.100 254.159 C 255.608 253.393,255.875 253.194,255.367 253.216 C 255.165 253.225,254.505 253.501,253.900 253.829 M211.146 255.416 C 211.886 255.737,212.696 255.993,212.946 255.984 C 213.196 255.976,212.794 255.706,212.054 255.384 C 211.314 255.063,210.504 254.807,210.254 254.816 C 210.004 254.824,210.406 255.094,211.146 255.416 M250.800 255.400 C 250.250 255.714,249.980 255.972,250.200 255.972 C 250.420 255.972,251.050 255.714,251.600 255.400 C 252.150 255.086,252.420 254.828,252.200 254.828 C 251.980 254.828,251.350 255.086,250.800 255.400 M214.800 256.600 C 216.626 257.303,217.345 257.293,215.800 256.586 C 215.140 256.283,214.330 256.042,214.000 256.048 C 213.670 256.055,214.030 256.303,214.800 256.600 M114.909 258.800 C 114.909 259.790,114.987 260.195,115.082 259.700 C 115.178 259.205,115.178 258.395,115.082 257.900 C 114.987 257.405,114.909 257.810,114.909 258.800 M279.265 269.017 C 278.595 270.488,278.723 270.802,279.447 269.465 C 279.786 268.840,279.988 268.254,279.896 268.163 C 279.805 268.071,279.521 268.456,279.265 269.017 M277.472 273.019 C 276.532 274.989,276.664 275.324,277.647 273.462 C 278.093 272.616,278.387 271.854,278.301 271.767 C 278.214 271.681,277.841 272.244,277.472 273.019 M121.600 278.491 C 121.600 278.862,124.461 283.600,124.685 283.600 C 124.790 283.600,124.299 282.565,123.594 281.300 C 122.327 279.027,121.600 278.003,121.600 278.491 M130.000 290.655 C 130.000 290.868,130.675 291.663,131.500 292.422 L 133.000 293.800 131.600 292.204 C 130.830 291.327,130.155 290.532,130.100 290.438 C 130.045 290.344,130.000 290.441,130.000 290.655 M261.986 294.700 L 259.800 297.000 262.100 294.814 C 264.237 292.782,264.583 292.400,264.286 292.400 C 264.224 292.400,263.189 293.435,261.986 294.700 M257.178 299.100 L 255.800 300.600 257.300 299.222 C 258.696 297.938,258.984 297.600,258.678 297.600 C 258.612 297.600,257.937 298.275,257.178 299.100 M179.600 320.400 C 180.968 320.838,182.019 320.838,181.000 320.400 C 180.560 320.211,179.840 320.062,179.400 320.068 C 178.757 320.077,178.796 320.143,179.600 320.400 M209.200 321.600 C 208.376 321.864,208.341 321.926,209.000 321.954 C 209.440 321.973,210.070 321.813,210.400 321.600 C 211.101 321.147,210.614 321.147,209.200 321.600 M188.049 321.760 C 188.443 322.190,199.170 322.684,201.600 322.384 C 203.444 322.157,203.114 322.104,199.561 322.056 C 197.230 322.025,193.630 321.885,191.561 321.744 C 189.493 321.604,187.912 321.611,188.049 321.760 M205.305 321.887 C 205.914 321.979,206.814 321.977,207.305 321.882 C 207.797 321.787,207.300 321.711,206.200 321.714 C 205.100 321.717,204.697 321.795,205.305 321.887 " stroke="none" fill="#115292" fill-rule="evenodd"></path><path id="path3" d="M199.170 79.497 C 198.377 80.393,198.359 80.461,199.066 79.866 C 200.147 78.957,201.643 79.742,202.676 81.759 C 203.026 82.442,203.431 83.090,203.576 83.200 C 204.212 83.680,209.200 91.442,209.200 91.951 C 209.200 92.151,209.447 92.409,209.749 92.525 C 210.280 92.729,215.494 100.281,216.084 101.700 C 216.371 102.393,217.200 102.685,217.200 102.093 C 217.200 101.924,216.462 100.892,215.560 99.801 C 214.659 98.710,213.501 97.003,212.988 96.008 C 212.475 95.014,211.323 93.300,210.427 92.200 C 209.532 91.100,208.657 90.020,208.483 89.800 C 208.308 89.580,207.583 88.410,206.870 87.200 C 205.018 84.058,204.627 83.426,204.391 83.200 C 204.276 83.090,203.847 82.460,203.439 81.800 C 201.394 78.496,200.487 78.007,199.170 79.497 M196.662 82.900 C 195.864 84.055,194.497 86.035,193.623 87.300 C 192.750 88.565,192.179 89.600,192.355 89.600 C 192.904 89.600,194.000 88.171,194.000 87.456 C 194.000 87.081,194.270 86.671,194.600 86.545 C 194.930 86.418,195.200 86.156,195.200 85.962 C 195.200 85.768,195.515 85.232,195.900 84.771 C 196.285 84.310,197.005 83.453,197.500 82.866 C 198.278 81.943,198.697 80.800,198.257 80.800 C 198.178 80.800,197.460 81.745,196.662 82.900 M189.700 92.604 C 188.765 93.815,188.000 94.956,188.000 95.141 C 188.000 95.325,187.640 95.802,187.200 96.200 C 186.760 96.598,186.400 97.166,186.400 97.462 C 186.400 97.758,186.220 98.000,186.000 98.000 C 185.780 98.000,185.600 98.180,185.600 98.400 C 185.600 99.231,186.353 98.754,186.864 97.600 C 187.156 96.940,187.514 96.400,187.660 96.400 C 187.805 96.400,188.374 95.635,188.924 94.700 C 189.474 93.765,190.391 92.564,190.962 92.030 C 191.533 91.497,192.000 90.912,192.000 90.730 C 192.000 89.963,191.298 90.536,189.700 92.604 M182.965 102.500 C 181.884 104.095,180.865 105.460,180.700 105.533 C 180.535 105.607,180.400 105.900,180.400 106.184 C 180.400 106.469,180.130 106.926,179.800 107.200 C 179.470 107.474,179.206 107.901,179.214 108.149 C 179.234 108.768,181.073 106.525,182.009 104.742 C 182.429 103.940,183.005 103.035,183.287 102.731 C 184.345 101.591,185.611 99.600,185.277 99.600 C 185.087 99.600,184.046 100.905,182.965 102.500 M217.600 103.581 C 217.600 103.884,217.869 104.418,218.197 104.766 C 218.525 105.115,219.756 106.840,220.931 108.600 C 230.054 122.257,230.400 122.757,230.400 122.294 C 230.400 122.146,229.496 120.624,228.391 118.912 C 225.575 114.549,225.540 114.497,224.169 112.654 C 223.492 111.744,221.977 109.470,220.803 107.600 C 218.328 103.659,217.600 102.745,217.600 103.581 M176.600 111.910 C 175.500 113.601,174.278 115.363,173.885 115.826 C 173.157 116.684,171.992 118.597,171.100 120.400 C 170.828 120.950,170.464 121.580,170.292 121.800 C 167.415 125.468,165.163 129.094,166.948 127.186 C 167.821 126.252,172.800 118.838,172.800 118.471 C 172.800 118.289,173.250 117.717,173.800 117.200 C 174.350 116.683,174.800 116.022,174.800 115.730 C 174.800 115.439,174.936 115.200,175.102 115.200 C 175.269 115.200,175.637 114.675,175.922 114.032 C 176.206 113.390,177.060 112.051,177.819 111.056 C 179.226 109.213,179.433 108.786,178.900 108.818 C 178.735 108.828,177.700 110.219,176.600 111.910 M230.892 123.617 C 231.273 124.158,232.430 125.950,233.463 127.600 C 235.461 130.790,236.441 132.093,236.669 131.865 C 236.882 131.652,231.327 123.326,230.726 122.957 C 230.419 122.769,230.489 123.044,230.892 123.617 M164.774 129.648 C 164.238 130.555,163.392 131.950,162.893 132.748 C 162.394 133.547,161.828 134.567,161.635 135.016 C 161.441 135.465,160.995 136.073,160.642 136.365 C 160.289 136.658,160.000 137.078,160.000 137.298 C 160.000 138.149,161.180 136.652,163.398 132.987 C 164.662 130.897,165.854 129.090,166.048 128.970 C 166.491 128.697,166.509 128.000,166.074 128.000 C 165.894 128.000,165.309 128.742,164.774 129.648 M236.809 132.700 C 236.814 132.865,237.170 133.450,237.600 134.000 C 238.030 134.550,238.386 135.137,238.391 135.304 C 238.402 135.672,242.806 142.400,243.037 142.400 C 243.127 142.400,243.200 142.040,243.200 141.600 C 243.200 141.156,242.933 140.800,242.600 140.800 C 242.259 140.800,242.000 140.441,242.000 139.967 C 242.000 139.510,240.899 137.620,239.553 135.767 C 237.183 132.505,236.790 132.066,236.809 132.700 M158.627 139.400 C 158.261 140.170,157.791 140.800,157.581 140.800 C 157.372 140.800,157.200 141.042,157.200 141.338 C 157.200 141.634,156.480 142.990,155.600 144.351 C 154.720 145.713,154.000 146.911,154.000 147.013 C 154.000 147.500,154.855 147.123,155.079 146.538 C 155.582 145.228,158.637 140.281,159.500 139.380 C 160.079 138.774,160.161 138.000,159.646 138.000 C 159.451 138.000,158.992 138.630,158.627 139.400 M243.200 143.028 C 243.200 143.153,243.708 144.008,244.328 144.928 C 244.949 145.848,246.337 148.106,247.413 149.947 C 248.489 151.787,249.435 153.096,249.515 152.854 C 249.596 152.613,248.865 151.197,247.891 149.708 C 246.918 148.219,245.535 146.055,244.819 144.900 C 243.603 142.939,243.200 142.473,243.200 143.028 M151.700 150.508 C 150.985 151.656,150.400 152.821,150.400 153.098 C 150.400 153.374,150.220 153.600,150.000 153.600 C 149.780 153.600,149.600 153.835,149.600 154.122 C 149.600 154.409,149.060 155.495,148.400 156.536 C 147.740 157.576,147.204 158.557,147.209 158.714 C 147.224 159.185,148.767 157.114,149.660 155.425 C 150.118 154.559,150.742 153.601,151.046 153.297 C 151.351 152.992,151.600 152.527,151.600 152.264 C 151.600 152.001,152.050 151.123,152.600 150.314 C 153.654 148.763,153.790 148.393,153.300 148.411 C 153.135 148.417,152.415 149.360,151.700 150.508 M249.600 153.690 C 249.600 153.813,250.410 155.354,251.400 157.115 C 252.390 158.875,253.200 160.604,253.200 160.958 C 253.200 161.311,253.464 161.600,253.787 161.600 C 254.361 161.600,254.218 160.464,253.586 160.000 C 253.436 159.890,252.552 158.450,251.622 156.800 C 249.908 153.761,249.600 153.288,249.600 153.690 M146.399 159.741 C 145.718 160.281,145.287 160.991,143.084 165.200 C 142.220 166.850,141.327 168.429,141.100 168.710 C 140.872 168.990,140.781 169.314,140.897 169.431 C 141.189 169.722,142.800 167.619,142.800 166.946 C 142.800 166.646,142.980 166.400,143.200 166.400 C 143.420 166.400,143.600 166.040,143.600 165.600 C 143.600 165.160,143.780 164.800,144.000 164.800 C 144.220 164.800,144.400 164.530,144.400 164.200 C 144.400 163.870,144.564 163.600,144.764 163.600 C 145.101 163.600,147.313 159.579,147.095 159.362 C 147.042 159.309,146.729 159.479,146.399 159.741 M254.406 162.900 C 254.403 163.505,254.558 164.000,254.751 164.000 C 254.944 164.000,255.495 164.945,255.975 166.100 C 257.397 169.520,259.345 173.589,259.490 173.444 C 259.564 173.369,259.110 172.159,258.480 170.754 C 257.851 169.349,257.051 167.480,256.702 166.600 C 255.707 164.090,255.604 163.862,254.990 162.800 L 254.412 161.800 254.406 162.900 M139.862 170.962 C 139.198 171.974,138.550 173.108,136.635 176.600 C 136.032 177.700,135.267 178.811,134.934 179.070 C 134.602 179.328,134.408 179.868,134.503 180.270 C 134.664 180.950,134.699 180.945,135.009 180.200 C 135.192 179.760,135.446 179.310,135.574 179.200 C 135.927 178.897,138.800 174.116,138.800 173.832 C 138.800 173.696,139.263 172.851,139.829 171.954 C 140.395 171.058,140.779 170.246,140.683 170.150 C 140.587 170.054,140.217 170.419,139.862 170.962 M175.600 172.408 C 172.926 172.624,173.137 172.656,177.543 172.702 C 180.262 172.730,182.422 172.699,182.343 172.633 C 181.964 172.315,178.286 172.192,175.600 172.408 M169.700 173.076 C 170.085 173.176,170.715 173.176,171.100 173.076 C 171.485 172.975,171.170 172.893,170.400 172.893 C 169.630 172.893,169.315 172.975,169.700 173.076 M184.800 173.200 C 186.168 173.638,187.219 173.638,186.200 173.200 C 185.760 173.011,185.040 172.862,184.600 172.868 C 183.957 172.877,183.996 172.943,184.800 173.200 M188.708 173.089 C 189.428 173.177,189.908 173.425,189.775 173.641 C 189.626 173.882,189.945 173.929,190.609 173.762 C 191.282 173.593,191.797 173.671,191.981 173.970 C 192.144 174.232,193.113 174.516,194.136 174.599 C 195.159 174.682,196.187 174.869,196.421 175.013 C 196.655 175.157,197.240 175.338,197.723 175.413 C 199.550 175.701,205.068 177.498,206.684 178.331 C 207.610 178.809,208.510 179.192,208.684 179.182 C 209.586 179.130,204.888 177.080,201.400 176.002 C 199.200 175.323,197.040 174.608,196.600 174.415 C 196.160 174.221,195.007 173.952,194.038 173.816 C 193.069 173.681,192.079 173.448,191.838 173.297 C 191.597 173.146,190.500 173.002,189.400 172.976 C 188.300 172.950,187.989 173.001,188.708 173.089 M160.005 174.052 C 157.246 174.793,155.291 175.625,157.617 175.070 C 158.176 174.936,159.631 174.709,160.850 174.566 C 162.344 174.390,163.067 174.125,163.067 173.753 C 163.067 173.449,163.052 173.211,163.033 173.224 C 163.015 173.238,161.652 173.610,160.005 174.052 M164.400 173.612 C 163.981 173.891,164.342 173.933,165.600 173.750 C 167.841 173.425,168.160 173.198,166.367 173.206 C 165.615 173.209,164.730 173.392,164.400 173.612 M260.223 175.800 C 260.368 176.240,260.656 177.185,260.862 177.900 C 261.069 178.615,261.409 179.200,261.619 179.200 C 261.828 179.200,262.021 179.605,262.046 180.100 C 262.072 180.595,262.162 180.730,262.247 180.400 C 262.331 180.070,261.851 178.720,261.180 177.400 C 260.508 176.080,260.078 175.360,260.223 175.800 M147.624 177.900 C 146.185 178.640,145.718 179.046,146.195 179.139 C 146.585 179.216,147.047 179.047,147.222 178.764 C 147.397 178.481,148.319 177.933,149.270 177.547 C 150.222 177.161,150.721 176.835,150.381 176.822 C 150.040 176.810,148.799 177.295,147.624 177.900 M140.400 181.195 C 138.310 182.261,136.409 183.304,136.175 183.512 C 134.542 184.969,132.860 185.179,133.754 183.814 C 134.473 182.717,134.627 181.413,133.991 181.806 C 133.766 181.945,133.002 183.170,132.294 184.529 C 130.783 187.427,130.557 188.021,131.275 187.200 C 131.564 186.870,132.340 186.333,133.000 186.006 C 133.660 185.679,135.328 184.734,136.707 183.906 C 138.086 183.078,139.378 182.400,139.578 182.400 C 139.779 182.400,140.181 182.172,140.471 181.893 C 140.762 181.614,141.774 181.043,142.719 180.623 C 144.307 179.919,145.286 179.162,144.524 179.228 C 144.346 179.243,142.490 180.128,140.400 181.195 M209.200 179.308 C 209.310 179.422,210.570 180.145,212.000 180.916 C 213.430 181.686,215.220 182.650,215.977 183.058 C 216.735 183.466,217.813 184.205,218.373 184.700 C 218.933 185.195,219.574 185.593,219.796 185.584 C 220.618 185.551,217.553 183.351,214.525 181.800 C 212.806 180.920,211.310 180.089,211.200 179.954 C 211.090 179.819,210.550 179.571,210.000 179.404 C 209.450 179.237,209.090 179.194,209.200 179.308 M262.412 181.637 C 262.405 181.768,262.738 182.858,263.152 184.060 C 263.565 185.261,264.031 186.999,264.187 187.920 C 264.342 188.842,264.653 189.709,264.878 189.848 C 265.124 190.000,265.197 189.804,265.062 189.350 C 264.939 188.938,264.720 188.060,264.575 187.400 C 264.035 184.933,262.458 180.733,262.412 181.637 M175.300 183.876 C 175.685 183.976,176.315 183.976,176.700 183.876 C 177.085 183.775,176.770 183.693,176.000 183.693 C 175.230 183.693,174.915 183.775,175.300 183.876 M220.400 185.784 C 220.400 185.886,221.705 186.939,223.300 188.125 C 224.895 189.311,226.543 190.668,226.962 191.141 C 227.381 191.613,227.912 192.000,228.141 192.000 C 228.622 192.000,225.430 188.896,224.028 188.000 C 223.511 187.670,222.593 186.995,221.987 186.500 C 220.925 185.633,220.400 185.396,220.400 185.784 M148.300 190.027 C 147.475 190.463,146.800 190.908,146.800 191.018 C 146.800 191.196,149.959 189.719,150.367 189.351 C 150.827 188.934,149.625 189.328,148.300 190.027 M231.753 195.601 C 233.769 197.832,233.658 198.326,231.100 198.505 L 229.000 198.652 231.000 198.720 C 233.811 198.815,234.266 198.442,233.338 196.803 C 232.932 196.087,232.422 195.163,232.205 194.750 C 231.988 194.338,231.472 194.000,231.059 194.000 C 230.439 194.000,230.561 194.281,231.753 195.601 M138.400 196.234 C 137.410 197.018,136.531 197.871,136.447 198.130 C 136.363 198.388,136.813 198.136,137.447 197.568 C 138.081 197.000,139.119 196.145,139.754 195.668 C 140.389 195.191,140.749 194.802,140.554 194.804 C 140.359 194.806,139.390 195.449,138.400 196.234 M276.680 199.229 C 277.139 199.983,278.002 201.545,278.599 202.700 C 279.196 203.855,279.751 204.800,279.832 204.800 C 280.369 204.800,277.098 198.631,276.299 198.138 C 276.051 197.984,276.222 198.475,276.680 199.229 M227.200 199.077 C 222.329 199.898,211.879 203.131,211.200 204.028 C 211.090 204.173,210.607 204.415,210.127 204.564 C 207.619 205.347,197.899 212.832,198.548 213.482 C 198.897 213.831,200.400 212.769,200.400 212.173 C 200.400 211.844,200.688 211.464,201.040 211.329 C 201.392 211.194,202.080 210.705,202.570 210.242 C 203.949 208.937,205.972 207.485,207.200 206.918 C 207.530 206.765,208.102 206.361,208.472 206.020 C 208.842 205.679,210.822 204.712,212.872 203.870 C 214.922 203.029,216.960 202.183,217.400 201.992 C 217.840 201.800,219.550 201.348,221.200 200.988 C 222.850 200.628,224.613 200.169,225.119 199.967 C 225.624 199.765,226.434 199.597,226.919 199.594 C 227.403 199.591,228.070 199.413,228.400 199.200 C 229.018 198.801,228.908 198.790,227.200 199.077 M275.567 201.633 C 275.512 204.592,275.660 207.668,275.988 210.400 C 276.182 212.016,276.222 210.577,276.095 206.600 C 275.897 200.431,275.635 197.969,275.567 201.633 M132.575 201.700 L 131.400 203.000 132.798 201.800 C 133.567 201.140,134.272 200.555,134.365 200.500 C 134.457 200.445,134.357 200.400,134.142 200.400 C 133.926 200.400,133.221 200.985,132.575 201.700 M189.347 204.298 C 187.704 206.445,186.509 208.233,186.013 209.286 C 185.637 210.086,185.647 210.107,186.092 209.456 C 186.371 209.047,187.423 207.596,188.429 206.233 C 190.545 203.364,190.914 202.800,190.671 202.800 C 190.574 202.800,189.979 203.474,189.347 204.298 M267.521 203.279 C 267.367 203.652,267.379 204.829,267.548 205.894 C 267.898 208.109,267.867 212.863,267.484 215.800 C 267.289 217.300,267.382 217.100,267.856 215.000 C 268.499 212.157,268.198 201.633,267.521 203.279 M130.392 203.810 C 129.619 204.741,130.171 204.917,130.998 204.002 C 131.397 203.561,131.538 203.200,131.311 203.200 C 131.084 203.200,130.670 203.474,130.392 203.810 M128.681 205.839 C 128.286 206.368,128.145 206.800,128.367 206.800 C 128.772 206.800,129.782 205.244,129.532 205.005 C 129.460 204.935,129.077 205.311,128.681 205.839 M126.439 208.944 C 125.757 209.934,125.200 210.888,125.200 211.065 C 125.200 211.241,125.681 210.669,126.270 209.793 C 126.858 208.917,127.528 208.075,127.758 207.922 C 127.988 207.769,128.064 207.531,127.927 207.394 C 127.790 207.256,127.120 207.954,126.439 208.944 M123.682 212.827 C 123.184 213.692,122.857 214.400,122.955 214.400 C 123.231 214.400,124.912 211.579,124.739 211.406 C 124.655 211.322,124.180 211.962,123.682 212.827 M196.802 215.500 C 196.327 216.325,195.738 217.360,195.492 217.800 C 194.797 219.044,194.666 225.918,195.352 225.177 C 195.731 224.766,195.814 223.965,195.640 222.400 C 195.336 219.660,196.900 214.800,198.086 214.800 C 198.259 214.800,198.400 214.620,198.400 214.400 C 198.400 213.538,197.624 214.072,196.802 215.500 M275.728 217.600 C 275.728 219.030,275.801 219.615,275.889 218.900 C 275.978 218.185,275.978 217.015,275.889 216.300 C 275.801 215.585,275.728 216.170,275.728 217.600 M183.247 220.833 C 183.273 222.465,183.426 224.340,183.587 225.000 C 183.747 225.660,183.792 224.400,183.685 222.200 C 183.456 217.468,183.180 216.606,183.247 220.833 M266.411 221.660 C 265.273 226.149,264.062 229.173,261.989 232.700 C 261.762 233.085,261.267 233.940,260.889 234.600 C 260.510 235.260,258.625 237.384,256.700 239.320 C 254.775 241.255,253.200 242.920,253.200 243.020 C 253.200 243.624,254.171 242.898,256.305 240.700 C 260.546 236.331,261.892 234.527,263.742 230.733 C 265.394 227.343,265.819 226.139,266.607 222.604 C 267.225 219.832,267.067 219.072,266.411 221.660 M285.247 223.233 C 285.273 223.985,285.441 225.140,285.620 225.800 C 285.835 226.589,285.870 226.178,285.723 224.600 C 285.477 221.955,285.173 221.081,285.247 223.233 M195.479 226.537 C 195.229 227.189,195.977 230.000,196.400 230.000 C 196.547 230.000,196.667 230.231,196.667 230.512 C 196.667 231.295,198.142 233.374,198.320 232.841 C 198.405 232.584,198.272 232.128,198.023 231.827 C 197.774 231.527,197.492 230.877,197.397 230.382 C 196.840 227.494,195.864 225.536,195.479 226.537 M115.665 230.617 C 115.409 231.178,115.207 231.854,115.216 232.119 C 115.224 232.383,115.497 231.988,115.822 231.239 C 116.505 229.665,116.361 229.090,115.665 230.617 M199.673 235.171 C 200.399 236.034,201.056 236.677,201.135 236.598 C 201.344 236.389,199.058 233.600,198.677 233.600 C 198.500 233.600,198.948 234.307,199.673 235.171 M270.709 236.226 C 270.126 237.431,269.833 238.303,270.058 238.164 C 270.491 237.897,272.107 234.374,271.895 234.161 C 271.826 234.092,271.292 235.022,270.709 236.226 M114.649 235.015 C 114.512 235.373,114.415 235.966,114.434 236.333 C 114.453 236.700,114.627 236.469,114.821 235.820 C 115.198 234.558,115.065 233.933,114.649 235.015 M188.049 236.700 C 189.421 238.951,191.732 242.001,191.922 241.811 C 192.014 241.719,191.469 240.869,190.712 239.922 C 189.954 238.975,188.929 237.525,188.434 236.700 C 187.940 235.875,187.445 235.200,187.335 235.200 C 187.225 235.200,187.546 235.875,188.049 236.700 M201.600 237.138 C 201.600 237.824,209.477 243.457,209.877 243.056 C 209.982 242.951,209.648 242.643,209.134 242.373 C 208.620 242.102,208.106 241.738,207.991 241.564 C 207.680 241.094,204.818 239.200,204.418 239.200 C 204.227 239.200,203.617 238.660,203.061 238.000 C 202.038 236.784,201.600 236.525,201.600 237.138 M285.724 239.000 C 285.726 240.320,285.801 240.812,285.890 240.093 C 285.979 239.374,285.977 238.294,285.886 237.693 C 285.795 237.092,285.722 237.680,285.724 239.000 M113.750 245.400 C 113.751 247.820,113.816 248.758,113.896 247.485 C 113.976 246.212,113.975 244.232,113.894 243.085 C 113.814 241.938,113.749 242.980,113.750 245.400 M192.033 242.520 C 192.125 242.587,193.370 243.706,194.800 245.007 L 197.400 247.373 195.013 244.886 C 193.699 243.519,192.454 242.400,192.246 242.400 C 192.037 242.400,191.942 242.454,192.033 242.520 M251.400 243.857 C 249.519 245.344,244.906 246.882,239.496 247.828 C 237.878 248.111,237.090 248.770,238.276 248.847 C 238.674 248.873,239.180 248.858,239.400 248.812 C 239.620 248.767,240.508 248.658,241.372 248.571 C 242.237 248.484,243.047 248.266,243.172 248.087 C 243.298 247.908,244.210 247.524,245.200 247.235 C 248.005 246.415,253.893 243.225,252.600 243.225 C 252.380 243.225,251.840 243.510,251.400 243.857 M285.456 244.084 C 285.321 244.588,285.234 246.080,285.261 247.400 C 285.311 249.774,285.315 249.765,285.618 246.600 C 285.934 243.297,285.882 242.494,285.456 244.084 M213.800 244.926 C 214.240 245.275,215.455 245.783,216.500 246.056 C 217.545 246.328,218.400 246.692,218.400 246.863 C 218.400 247.035,218.688 247.064,219.040 246.929 C 219.393 246.794,219.843 246.935,220.040 247.242 C 220.294 247.635,220.489 247.668,220.700 247.355 C 220.882 247.084,221.314 247.034,221.800 247.226 L 222.600 247.544 221.800 247.584 C 221.089 247.620,221.074 247.668,221.666 248.013 C 222.354 248.415,223.600 248.151,223.600 247.603 C 223.600 247.431,221.485 246.706,218.900 245.992 C 216.315 245.277,213.930 244.603,213.600 244.493 C 213.260 244.379,213.347 244.568,213.800 244.926 M263.578 246.225 C 262.820 247.008,262.470 247.536,262.800 247.397 C 263.352 247.165,265.455 244.800,265.109 244.800 C 265.025 244.800,264.337 245.441,263.578 246.225 M224.000 247.969 C 224.000 248.737,224.981 248.901,230.142 248.993 C 233.034 249.044,234.770 249.025,234.000 248.951 C 231.689 248.728,225.864 247.974,224.900 247.773 C 224.405 247.669,224.000 247.758,224.000 247.969 M260.400 249.253 C 259.630 249.924,258.102 251.086,257.005 251.836 C 255.908 252.586,255.160 253.200,255.344 253.200 C 255.527 253.200,256.244 252.804,256.938 252.320 C 259.067 250.836,262.493 247.999,262.137 248.016 C 261.952 248.025,261.170 248.582,260.400 249.253 M284.599 251.459 C 284.460 252.307,284.247 253.540,284.126 254.200 C 284.005 254.860,284.023 255.290,284.165 255.155 C 284.484 254.852,285.246 250.313,285.017 250.084 C 284.926 249.993,284.738 250.612,284.599 251.459 M208.400 254.000 C 209.170 254.422,210.070 254.770,210.400 254.774 C 210.730 254.779,210.215 254.426,209.256 253.991 C 207.050 252.990,206.565 252.995,208.400 254.000 M252.131 254.333 C 250.993 254.920,249.913 255.552,249.731 255.738 C 249.333 256.145,252.118 254.891,253.800 253.906 C 255.638 252.830,254.462 253.130,252.131 254.333 M114.296 257.846 C 114.412 258.921,114.572 259.875,114.653 259.967 C 114.972 260.329,114.765 256.965,114.437 256.446 C 114.222 256.107,114.168 256.651,114.296 257.846 M215.946 256.616 C 216.686 256.937,217.406 257.194,217.546 257.186 C 218.066 257.157,215.776 256.028,215.200 256.030 C 214.870 256.031,215.206 256.294,215.946 256.616 M234.300 259.082 C 234.795 259.178,235.605 259.178,236.100 259.082 C 236.595 258.987,236.190 258.909,235.200 258.909 C 234.210 258.909,233.805 258.987,234.300 259.082 M115.218 262.854 C 115.208 263.214,115.463 264.114,115.784 264.854 C 116.540 266.594,116.558 265.873,115.812 263.800 C 115.495 262.920,115.227 262.494,115.218 262.854 M116.830 268.000 C 116.828 268.576,117.957 270.866,117.986 270.346 C 117.994 270.206,117.737 269.486,117.416 268.746 C 117.094 268.006,116.831 267.670,116.830 268.000 M278.850 270.650 C 278.586 271.229,278.462 271.795,278.574 271.907 C 278.686 272.019,278.968 271.611,279.200 271.000 C 279.432 270.389,279.557 269.823,279.476 269.743 C 279.396 269.662,279.114 270.071,278.850 270.650 M276.589 275.319 C 275.188 277.762,274.926 278.369,275.513 277.800 C 276.088 277.244,278.096 273.563,277.921 273.388 C 277.842 273.309,277.243 274.178,276.589 275.319 M120.025 276.056 C 120.011 276.416,120.315 277.055,120.700 277.475 C 121.085 277.894,121.272 278.040,121.116 277.797 C 120.960 277.555,120.656 276.917,120.441 276.378 C 120.194 275.760,120.041 275.641,120.025 276.056 M122.187 280.375 C 122.521 281.021,122.976 281.661,123.198 281.799 C 123.420 281.936,123.223 281.407,122.761 280.624 C 121.748 278.907,121.335 278.728,122.187 280.375 M272.984 281.500 C 272.595 282.105,271.496 283.635,270.542 284.900 C 269.587 286.165,268.940 287.198,269.103 287.195 C 269.267 287.193,270.120 286.170,271.000 284.922 C 273.305 281.654,274.105 280.400,273.885 280.400 C 273.779 280.400,273.374 280.895,272.984 281.500 M129.500 290.600 C 130.404 291.700,133.086 294.490,135.460 296.800 C 139.497 300.729,139.430 300.638,134.411 295.400 C 127.487 288.172,127.575 288.258,129.500 290.600 M265.781 290.900 L 264.200 292.600 265.900 291.019 C 267.481 289.548,267.784 289.200,267.481 289.200 C 267.416 289.200,266.651 289.965,265.781 290.900 M259.200 297.633 L 256.200 300.465 259.300 297.765 C 262.081 295.343,262.632 294.799,262.300 294.801 C 262.245 294.801,260.850 296.075,259.200 297.633 M142.144 302.709 C 142.460 303.221,144.800 304.953,144.800 304.675 C 144.800 304.576,144.139 303.991,143.332 303.375 C 142.524 302.759,141.989 302.459,142.144 302.709 M248.600 306.250 C 247.881 306.862,247.734 307.105,248.233 306.857 C 248.966 306.493,250.341 305.176,249.949 305.214 C 249.867 305.222,249.260 305.688,248.600 306.250 M243.200 309.610 C 239.440 311.884,239.082 312.188,241.800 310.801 C 243.941 309.709,246.526 308.002,246.000 308.028 C 245.890 308.033,244.630 308.745,243.200 309.610 M162.000 314.800 C 163.210 315.439,164.380 315.962,164.600 315.962 C 164.820 315.962,164.010 315.439,162.800 314.800 C 161.590 314.161,160.420 313.638,160.200 313.638 C 159.980 313.638,160.790 314.161,162.000 314.800 M210.421 321.579 C 210.046 321.816,210.470 321.865,211.621 321.718 C 212.599 321.592,213.475 321.425,213.567 321.345 C 213.942 321.019,210.955 321.240,210.421 321.579 M187.000 322.023 C 187.880 322.205,189.140 322.342,189.800 322.327 C 190.700 322.307,190.550 322.220,189.200 321.980 C 186.786 321.550,184.894 321.587,187.000 322.023 M201.800 322.400 L 199.800 322.674 202.000 322.702 C 203.210 322.717,205.100 322.590,206.200 322.418 L 208.200 322.107 206.000 322.116 C 204.790 322.121,202.900 322.249,201.800 322.400 M193.500 322.693 C 194.435 322.777,195.965 322.777,196.900 322.693 C 197.835 322.609,197.070 322.540,195.200 322.540 C 193.330 322.540,192.565 322.609,193.500 322.693 " stroke="none" fill="#113f61" fill-rule="evenodd"></path><path id="path4" d="M199.300 78.270 C 198.805 78.615,198.400 79.146,198.400 79.449 C 198.400 79.752,198.253 80.000,198.074 80.000 C 197.894 80.000,197.343 80.720,196.848 81.600 C 196.353 82.480,195.786 83.200,195.587 83.200 C 195.001 83.200,191.951 88.053,192.095 88.756 C 192.182 89.182,192.696 88.704,193.613 87.342 C 200.493 77.131,200.816 76.950,203.444 81.830 C 204.120 83.085,204.811 83.633,204.793 82.900 C 204.770 81.955,201.023 77.516,200.337 77.621 C 200.262 77.633,199.795 77.924,199.300 78.270 M204.800 83.927 C 204.800 84.161,204.969 84.457,205.175 84.585 C 205.382 84.712,206.139 85.848,206.858 87.108 C 207.577 88.369,208.308 89.580,208.483 89.800 C 208.657 90.020,209.532 91.100,210.427 92.200 C 211.323 93.300,212.479 95.021,212.996 96.024 C 213.513 97.028,214.536 98.571,215.268 99.454 C 216.001 100.338,217.770 102.911,219.200 105.172 C 220.630 107.434,222.610 110.421,223.600 111.811 C 225.971 115.140,226.083 115.306,228.298 118.800 C 229.875 121.288,230.223 121.641,230.332 120.868 C 230.411 120.311,230.169 119.711,229.732 119.380 C 229.329 119.075,229.155 118.820,229.344 118.813 C 229.534 118.806,229.292 118.479,228.807 118.086 C 228.323 117.694,227.898 116.884,227.863 116.287 C 227.828 115.689,227.590 115.200,227.333 115.200 C 227.076 115.200,226.487 114.588,226.025 113.840 C 225.562 113.092,224.917 112.377,224.592 112.252 C 224.266 112.127,224.000 111.679,224.000 111.255 C 224.000 110.832,223.722 110.379,223.382 110.248 C 223.042 110.118,222.504 109.390,222.187 108.631 C 221.527 107.050,219.990 104.700,218.573 103.103 C 218.038 102.500,217.594 101.690,217.587 101.303 C 217.580 100.917,216.770 99.792,215.787 98.805 C 214.804 97.818,214.000 96.783,214.000 96.505 C 214.000 96.227,213.820 96.000,213.600 96.000 C 213.380 96.000,213.200 95.697,213.200 95.326 C 213.200 94.955,212.815 94.242,212.344 93.741 C 211.874 93.240,211.289 92.480,211.044 92.053 C 208.788 88.109,204.800 82.919,204.800 83.927 M189.769 91.100 C 189.149 91.925,188.522 92.690,188.375 92.800 C 188.228 92.910,187.720 93.765,187.246 94.700 C 186.772 95.635,186.207 96.400,185.992 96.400 C 185.776 96.400,185.600 96.668,185.600 96.997 C 185.600 97.325,185.088 98.090,184.462 98.697 C 183.835 99.303,182.832 100.790,182.231 102.000 C 181.064 104.350,178.200 108.391,177.328 108.920 C 177.038 109.096,176.800 109.407,176.800 109.612 C 176.800 109.817,176.170 110.969,175.400 112.173 C 174.630 113.377,174.000 114.531,174.000 114.738 C 174.000 114.945,173.730 115.218,173.400 115.345 C 173.070 115.471,172.800 115.829,172.800 116.138 C 172.800 116.448,172.533 116.924,172.206 117.195 C 171.880 117.466,171.205 118.523,170.706 119.544 C 170.208 120.565,169.593 121.620,169.339 121.889 C 169.086 122.159,168.486 123.014,168.007 123.789 C 167.527 124.565,166.969 125.200,166.767 125.200 C 166.565 125.200,166.400 125.541,166.400 125.958 C 166.400 126.375,165.953 127.140,165.407 127.658 C 164.861 128.176,164.411 128.739,164.407 128.910 C 164.403 129.080,163.770 130.135,163.000 131.255 C 162.230 132.374,161.600 133.540,161.600 133.845 C 161.600 134.150,161.420 134.400,161.200 134.400 C 160.980 134.400,160.800 134.670,160.800 135.000 C 160.800 135.330,160.620 135.600,160.400 135.600 C 160.180 135.600,160.000 135.868,160.000 136.197 C 160.000 136.525,159.640 137.018,159.200 137.293 C 158.760 137.568,158.400 138.019,158.400 138.296 C 158.400 138.573,158.220 138.800,158.000 138.800 C 157.780 138.800,157.600 139.166,157.600 139.613 C 157.600 140.059,157.326 140.530,156.991 140.659 C 156.656 140.787,156.007 141.766,155.547 142.834 C 155.088 143.901,154.462 144.983,154.156 145.236 C 153.850 145.490,153.600 146.021,153.600 146.416 C 153.600 146.810,153.465 147.193,153.300 147.267 C 152.724 147.523,150.842 150.297,150.130 151.942 C 149.735 152.854,149.274 153.600,149.106 153.600 C 148.938 153.600,148.800 153.846,148.800 154.146 C 148.800 154.446,148.440 155.150,148.000 155.709 C 147.560 156.269,147.193 156.968,147.184 157.263 C 147.175 157.558,146.635 158.423,145.984 159.185 C 145.333 159.947,144.800 160.780,144.800 161.036 C 144.800 161.292,144.501 161.749,144.135 162.051 C 143.770 162.353,143.059 163.528,142.557 164.663 C 142.054 165.798,141.453 166.844,141.221 166.987 C 140.990 167.130,140.800 167.535,140.800 167.886 C 140.800 168.237,140.350 169.114,139.800 169.836 C 139.250 170.557,138.800 171.294,138.800 171.473 C 138.800 171.653,137.936 173.150,136.880 174.800 C 134.722 178.171,134.170 179.343,134.848 179.117 C 135.275 178.975,135.591 178.470,138.176 173.800 C 138.785 172.700,139.426 171.620,139.600 171.400 C 139.981 170.918,141.627 167.969,143.373 164.638 C 145.207 161.141,145.736 160.268,146.300 159.808 C 146.821 159.383,147.909 157.594,149.102 155.200 C 149.486 154.430,149.935 153.740,150.100 153.667 C 150.265 153.593,150.400 153.309,150.400 153.035 C 150.400 152.479,152.807 148.675,153.291 148.467 C 153.461 148.393,153.604 148.123,153.609 147.867 C 153.613 147.610,154.423 146.156,155.409 144.635 C 156.394 143.114,157.200 141.629,157.200 141.335 C 157.200 141.041,157.372 140.800,157.581 140.800 C 157.791 140.800,158.261 140.170,158.627 139.400 C 158.992 138.630,159.451 138.000,159.646 138.000 C 159.841 138.000,160.000 137.752,160.000 137.449 C 160.000 137.146,160.289 136.658,160.642 136.365 C 160.995 136.073,161.441 135.465,161.635 135.016 C 161.828 134.567,162.394 133.547,162.893 132.748 C 163.392 131.950,164.238 130.555,164.774 129.648 C 165.309 128.742,165.894 128.000,166.074 128.000 C 166.253 128.000,166.405 127.775,166.411 127.500 C 166.419 127.099,168.289 124.353,170.292 121.800 C 170.464 121.580,170.828 120.950,171.100 120.400 C 171.985 118.612,173.154 116.687,173.885 115.817 C 174.278 115.349,175.495 113.623,176.590 111.983 C 177.684 110.342,178.674 108.910,178.790 108.800 C 179.086 108.518,179.954 107.113,180.273 106.400 C 180.421 106.070,180.645 105.710,180.771 105.600 C 180.897 105.490,181.884 104.095,182.965 102.500 C 184.046 100.905,185.081 99.600,185.265 99.600 C 185.449 99.600,185.600 99.240,185.600 98.800 C 185.600 98.360,185.780 98.000,186.000 98.000 C 186.220 98.000,186.400 97.758,186.400 97.462 C 186.400 97.166,186.760 96.598,187.200 96.200 C 187.640 95.802,188.000 95.319,188.000 95.126 C 188.000 94.688,191.160 90.648,191.644 90.467 C 192.207 90.256,192.058 89.600,191.447 89.600 C 191.144 89.600,190.388 90.275,189.769 91.100 M230.400 122.376 C 230.400 122.583,230.592 122.871,230.826 123.016 C 231.225 123.262,236.800 131.525,236.800 131.870 C 236.800 131.957,237.970 133.622,239.400 135.570 C 240.830 137.519,242.000 139.492,242.000 139.956 C 242.000 140.440,242.256 140.800,242.600 140.800 C 242.935 140.800,243.200 141.156,243.200 141.606 C 243.200 142.050,243.803 143.355,244.539 144.506 C 248.973 151.439,249.408 152.043,249.530 151.436 C 249.638 150.902,247.680 147.907,246.761 147.200 C 246.618 147.090,246.374 146.417,246.219 145.705 C 246.065 144.992,245.783 144.313,245.594 144.196 C 244.867 143.747,242.761 139.587,243.035 139.143 C 243.194 138.886,243.156 138.780,242.951 138.907 C 242.746 139.033,241.889 138.071,241.045 136.768 C 240.202 135.466,239.352 134.400,239.156 134.400 C 238.960 134.400,238.800 134.144,238.800 133.831 C 238.800 133.518,238.350 132.727,237.800 132.073 C 237.250 131.419,236.800 130.708,236.800 130.491 C 236.800 130.275,236.509 129.856,236.153 129.561 C 235.798 129.266,235.060 128.081,234.514 126.929 C 233.969 125.776,233.270 124.624,232.961 124.368 C 232.652 124.112,232.400 123.719,232.400 123.495 C 232.400 123.068,231.215 122.035,230.700 122.013 C 230.535 122.006,230.400 122.169,230.400 122.376 M250.325 154.534 C 250.737 155.231,251.581 156.700,252.202 157.800 C 252.823 158.900,253.456 159.890,253.609 160.000 C 253.762 160.110,254.133 160.886,254.433 161.725 C 255.046 163.439,256.000 164.505,256.000 163.478 C 256.000 163.136,255.730 162.587,255.400 162.257 C 255.070 161.927,254.800 161.284,254.800 160.829 C 254.800 160.373,254.622 160.000,254.405 160.000 C 254.188 160.000,253.732 159.415,253.391 158.700 C 253.051 157.985,252.354 156.680,251.842 155.800 C 251.331 154.920,250.975 154.085,251.052 153.945 C 251.128 153.805,250.828 153.596,250.384 153.480 C 249.586 153.271,249.585 153.282,250.325 154.534 M256.000 164.926 C 256.000 165.104,257.209 167.988,258.262 170.321 C 258.589 171.048,259.487 173.205,260.257 175.115 C 261.027 177.024,261.802 178.770,261.978 178.994 C 262.155 179.217,262.395 179.940,262.512 180.600 C 262.628 181.260,263.029 182.610,263.402 183.600 C 265.216 188.419,267.774 201.203,268.225 207.700 C 268.713 214.748,266.797 224.615,263.771 230.630 C 263.021 232.121,262.491 233.424,262.593 233.527 C 262.942 233.875,264.332 231.807,264.830 230.200 C 265.103 229.320,265.544 228.238,265.809 227.797 C 266.365 226.871,267.464 222.270,268.101 218.200 C 268.916 212.991,268.679 201.463,267.682 197.851 C 267.205 196.119,266.909 194.547,267.025 194.359 C 267.142 194.171,267.055 193.338,266.833 192.508 C 266.611 191.679,266.162 189.920,265.835 188.600 C 265.214 186.089,264.248 183.161,263.593 181.800 C 263.381 181.360,262.758 179.785,262.207 178.300 C 261.657 176.815,261.041 175.285,260.837 174.900 C 259.981 173.279,259.200 171.233,259.200 170.611 C 259.200 170.244,258.921 169.664,258.580 169.323 C 258.240 168.982,257.857 168.185,257.730 167.552 C 257.604 166.918,257.343 166.400,257.150 166.400 C 256.957 166.400,256.800 166.141,256.800 165.824 C 256.800 165.507,256.620 165.136,256.400 165.000 C 256.180 164.864,256.000 164.831,256.000 164.926 M183.200 173.217 C 183.750 173.454,185.336 173.724,186.724 173.816 C 188.113 173.908,189.388 174.069,189.558 174.174 C 189.728 174.279,189.867 174.094,189.867 173.763 C 189.867 173.289,189.396 173.182,187.633 173.256 C 186.405 173.308,184.680 173.224,183.800 173.068 C 182.450 172.830,182.356 172.853,183.200 173.217 M168.300 173.482 C 168.795 173.578,169.605 173.578,170.100 173.482 C 170.595 173.387,170.190 173.309,169.200 173.309 C 168.210 173.309,167.805 173.387,168.300 173.482 M164.300 173.887 C 162.586 174.146,163.008 174.639,164.798 174.469 C 165.677 174.385,166.296 174.155,166.174 173.958 C 166.052 173.761,165.828 173.627,165.676 173.660 C 165.524 173.693,164.905 173.795,164.300 173.887 M190.651 174.588 C 190.858 175.129,190.981 175.159,191.256 174.734 C 191.503 174.351,191.685 174.327,191.900 174.650 C 192.065 174.898,193.550 175.324,195.200 175.596 C 196.850 175.869,198.380 176.220,198.600 176.376 C 199.215 176.812,202.178 177.599,203.246 177.609 C 203.771 177.614,204.650 177.970,205.200 178.400 C 205.750 178.830,206.650 179.178,207.200 179.173 C 209.377 179.154,201.412 175.994,197.723 175.413 C 197.240 175.338,196.642 175.149,196.392 174.995 C 196.143 174.841,195.368 174.675,194.669 174.625 C 193.971 174.576,192.723 174.395,191.895 174.222 C 190.576 173.948,190.422 173.993,190.651 174.588 M157.800 175.059 C 154.530 175.752,147.971 177.879,147.420 178.424 C 146.759 179.078,147.941 178.846,149.611 177.995 C 150.479 177.552,153.576 176.638,156.492 175.964 C 159.409 175.290,161.871 174.662,161.964 174.569 C 162.269 174.264,160.650 174.455,157.800 175.059 M143.012 180.348 C 141.919 180.926,140.781 181.625,140.484 181.900 C 140.186 182.175,139.789 182.400,139.600 182.400 C 138.767 182.400,134.267 185.402,134.914 185.527 C 135.291 185.599,135.869 185.388,136.200 185.057 C 136.531 184.726,137.657 184.038,138.701 183.528 C 139.745 183.018,140.696 182.473,140.814 182.316 C 140.932 182.159,141.696 181.752,142.511 181.411 C 143.327 181.070,144.581 180.434,145.297 179.997 C 147.294 178.780,145.436 179.065,143.012 180.348 M209.081 180.187 C 209.477 180.731,210.115 181.181,210.500 181.187 C 210.885 181.194,211.200 181.391,211.200 181.624 C 211.200 181.857,211.388 181.931,211.617 181.789 C 211.847 181.647,212.612 181.967,213.317 182.499 C 214.023 183.032,215.190 183.669,215.912 183.917 C 216.633 184.164,217.501 184.644,217.840 184.983 C 218.180 185.323,218.667 185.600,218.924 185.600 C 219.560 185.600,217.672 183.971,215.977 183.058 C 215.220 182.650,213.302 181.615,211.716 180.758 C 208.326 178.926,208.133 178.885,209.081 180.187 M133.143 181.434 C 132.562 182.295,131.861 183.720,131.585 184.600 C 131.309 185.480,130.904 186.317,130.684 186.460 C 130.464 186.602,130.394 187.006,130.528 187.357 C 130.740 187.909,130.969 187.861,132.234 187.003 C 133.037 186.458,133.898 186.125,134.147 186.264 C 134.484 186.452,134.484 186.391,134.147 186.026 C 133.789 185.638,133.520 185.643,132.865 186.052 C 131.233 187.072,131.961 184.117,133.882 181.930 C 134.205 181.561,134.409 180.946,134.335 180.563 C 134.233 180.039,133.939 180.254,133.143 181.434 M180.200 183.645 C 182.180 183.853,185.600 184.305,187.800 184.648 C 192.808 185.431,194.425 185.630,193.400 185.340 C 192.960 185.216,192.420 184.975,192.200 184.804 C 191.626 184.360,185.700 183.654,180.800 183.445 L 176.600 183.267 180.200 183.645 M165.600 184.248 C 164.123 184.648,164.015 184.733,165.000 184.720 C 166.794 184.698,168.713 184.217,168.000 183.969 C 167.670 183.855,166.590 183.980,165.600 184.248 M172.300 183.882 C 172.795 183.978,173.605 183.978,174.100 183.882 C 174.595 183.787,174.190 183.709,173.200 183.709 C 172.210 183.709,171.805 183.787,172.300 183.882 M155.665 186.232 C 154.011 187.075,155.384 187.184,157.829 186.404 L 160.200 185.649 158.400 185.702 C 157.410 185.732,156.179 185.970,155.665 186.232 M197.587 186.424 C 199.281 186.923,200.310 187.050,200.567 186.793 C 200.824 186.536,200.595 186.400,199.904 186.400 C 199.323 186.400,198.736 186.220,198.600 186.000 C 198.464 185.780,197.598 185.614,196.676 185.631 C 195.002 185.661,195.004 185.662,197.587 186.424 M220.817 186.950 C 221.596 187.689,222.631 188.419,223.117 188.574 C 223.603 188.728,224.000 189.073,224.000 189.341 C 224.000 189.608,224.540 190.146,225.200 190.536 C 225.860 190.926,226.400 191.415,226.400 191.623 C 226.400 191.830,226.670 192.000,227.000 192.000 C 227.330 192.000,227.600 192.157,227.600 192.348 C 227.600 192.540,228.229 193.125,228.997 193.648 C 229.766 194.172,230.396 194.760,230.397 194.956 C 230.399 195.152,230.687 195.522,231.037 195.778 C 231.388 196.034,231.703 196.729,231.737 197.322 C 231.803 198.460,233.200 198.940,233.200 197.824 C 233.200 196.986,228.802 192.000,228.062 192.000 C 227.876 192.000,227.381 191.616,226.962 191.148 C 226.059 190.137,220.104 185.598,219.688 185.603 C 219.530 185.605,220.038 186.211,220.817 186.950 M153.600 187.146 C 153.600 187.336,152.779 187.805,151.776 188.188 C 150.772 188.571,150.015 188.949,150.093 189.027 C 150.387 189.321,154.772 187.478,154.567 187.147 C 154.290 186.698,153.600 186.697,153.600 187.146 M202.785 187.981 C 205.380 188.954,205.227 188.936,204.962 188.244 C 204.844 187.938,204.355 187.683,203.874 187.676 C 203.393 187.669,202.460 187.551,201.800 187.413 C 201.140 187.274,201.583 187.530,202.785 187.981 M207.954 190.018 C 209.359 190.668,210.664 191.200,210.854 191.200 C 211.044 191.200,211.200 191.380,211.200 191.600 C 211.200 191.820,211.425 191.994,211.700 191.987 C 212.379 191.969,210.456 190.400,209.756 190.400 C 209.450 190.400,209.200 190.238,209.200 190.039 C 209.200 189.633,207.020 188.790,206.040 188.818 C 205.688 188.828,206.549 189.368,207.954 190.018 M146.297 190.766 C 144.698 191.791,144.403 192.206,145.800 191.466 C 147.476 190.577,148.271 190.008,147.800 190.035 C 147.580 190.048,146.904 190.377,146.297 190.766 M141.772 193.400 C 140.689 194.170,139.654 194.800,139.472 194.800 C 139.291 194.800,138.234 195.655,137.124 196.700 C 136.014 197.745,134.947 198.555,134.753 198.500 C 134.559 198.445,134.400 198.554,134.400 198.743 C 134.400 198.932,132.960 200.577,131.200 202.400 C 126.091 207.691,127.503 206.860,133.100 201.282 C 135.905 198.487,139.612 195.255,141.337 194.100 C 143.063 192.945,144.310 192.000,144.108 192.000 C 143.906 192.000,142.855 192.630,141.772 193.400 M213.600 192.838 C 214.271 193.389,214.436 193.726,214.100 193.863 C 213.497 194.108,213.433 194.800,214.013 194.800 C 214.239 194.800,214.531 194.523,214.661 194.185 C 214.913 193.529,213.768 191.994,213.038 192.009 C 212.797 192.014,213.050 192.387,213.600 192.838 M209.800 194.800 C 208.722 195.074,208.702 195.106,209.600 195.113 C 210.150 195.117,211.050 194.976,211.600 194.800 C 212.944 194.369,211.492 194.369,209.800 194.800 M206.000 195.618 C 205.562 195.915,205.724 195.952,206.600 195.756 C 208.071 195.427,208.390 195.198,207.367 195.206 C 206.945 195.209,206.330 195.395,206.000 195.618 M201.000 196.871 C 198.314 197.808,198.160 197.894,198.524 198.257 C 198.665 198.398,199.010 198.327,199.290 198.098 C 199.571 197.869,200.970 197.313,202.400 196.863 C 203.830 196.413,204.640 196.042,204.200 196.039 C 203.760 196.036,202.320 196.410,201.000 196.871 M276.590 198.300 C 276.994 198.795,278.295 201.135,279.482 203.500 C 280.968 206.462,281.569 207.371,281.414 206.420 C 281.290 205.661,281.023 204.938,280.821 204.813 C 280.619 204.688,280.153 203.700,279.785 202.618 C 279.389 201.450,278.454 199.989,277.487 199.025 C 276.590 198.131,276.186 197.805,276.590 198.300 M195.493 199.414 C 194.672 199.972,194.000 200.613,194.000 200.838 C 194.000 201.063,193.863 201.163,193.696 201.059 C 193.528 200.956,193.044 201.125,192.619 201.435 C 192.195 201.746,192.051 202.000,192.300 202.000 C 192.549 202.000,192.866 201.817,193.004 201.593 C 193.142 201.370,193.402 201.277,193.581 201.388 C 193.760 201.499,194.361 201.232,194.916 200.795 C 195.472 200.358,196.153 200.000,196.430 200.000 C 196.707 200.000,196.815 199.882,196.670 199.737 C 196.525 199.592,196.607 199.232,196.852 198.937 C 197.499 198.157,197.176 198.271,195.493 199.414 M224.800 198.978 C 224.030 199.273,222.095 199.743,220.500 200.022 C 218.905 200.300,217.600 200.659,217.600 200.820 C 217.600 200.980,216.925 201.234,216.100 201.385 C 215.275 201.536,214.240 201.881,213.800 202.153 C 213.360 202.425,212.145 202.966,211.100 203.357 C 210.055 203.747,209.200 204.243,209.200 204.460 C 209.200 204.865,210.834 204.512,211.200 204.028 C 211.679 203.395,218.190 201.172,222.405 200.202 C 229.475 198.574,229.748 198.486,227.800 198.461 C 226.920 198.450,225.570 198.683,224.800 198.978 M275.314 201.400 C 275.317 202.500,275.395 202.903,275.487 202.295 C 275.579 201.686,275.577 200.786,275.482 200.295 C 275.387 199.803,275.311 200.300,275.314 201.400 M190.365 203.700 C 188.033 206.249,185.473 210.433,185.953 210.913 C 186.282 211.242,186.400 211.123,186.400 210.456 C 186.400 209.956,186.578 209.663,186.800 209.800 C 187.020 209.936,187.200 209.767,187.200 209.424 C 187.200 209.081,187.345 208.800,187.523 208.800 C 187.701 208.800,188.152 208.105,188.527 207.257 C 189.185 205.764,190.033 204.562,191.458 203.100 C 191.833 202.715,192.008 202.400,191.847 202.400 C 191.687 202.400,191.020 202.985,190.365 203.700 M275.280 211.470 C 275.247 219.504,274.547 224.588,272.757 229.800 C 272.530 230.460,272.297 231.180,272.239 231.400 C 272.044 232.135,271.154 234.177,269.982 236.577 C 268.749 239.102,268.648 240.194,269.857 237.937 C 271.581 234.718,273.485 230.014,273.961 227.800 C 274.244 226.480,274.633 225.000,274.824 224.512 C 275.502 222.782,276.065 211.553,275.682 207.400 C 275.332 203.602,275.312 203.808,275.280 211.470 M206.856 205.613 C 206.336 206.046,205.661 206.400,205.356 206.400 C 205.050 206.400,204.800 206.536,204.800 206.702 C 204.800 206.869,204.215 207.256,203.500 207.562 C 197.559 210.111,193.009 219.718,194.649 226.251 C 194.923 227.344,195.600 227.132,195.600 225.953 C 195.600 225.460,195.426 225.260,195.148 225.432 C 194.821 225.634,194.749 224.736,194.888 222.155 C 195.084 218.531,196.535 214.630,197.879 214.114 C 198.166 214.004,198.400 213.768,198.400 213.589 C 198.400 212.867,202.300 209.432,205.451 207.378 C 207.293 206.178,208.800 205.106,208.800 204.998 C 208.800 204.544,207.734 204.881,206.856 205.613 M126.147 208.228 C 125.406 209.014,124.800 210.034,124.800 210.495 C 124.800 210.956,124.856 211.258,124.923 211.167 C 127.955 207.073,128.522 205.710,126.147 208.228 M282.973 212.289 C 283.486 213.780,284.100 215.630,284.338 216.400 L 284.771 217.800 284.564 216.400 C 284.187 213.849,283.454 211.200,283.124 211.200 C 282.946 211.200,282.800 210.941,282.800 210.624 C 282.800 210.307,282.629 209.942,282.421 209.813 C 282.212 209.684,282.461 210.798,282.973 212.289 M123.292 212.629 C 122.797 213.383,122.214 214.000,121.996 214.000 C 121.778 214.000,121.600 214.371,121.600 214.824 C 121.600 215.958,122.133 215.526,123.397 213.368 C 124.665 211.205,124.587 210.653,123.292 212.629 M184.611 213.416 C 183.316 217.233,183.803 229.737,185.282 230.651 C 185.631 230.866,185.525 228.505,185.154 227.785 C 184.408 226.341,184.400 216.403,185.142 214.166 C 185.440 213.268,185.620 212.208,185.542 211.810 C 185.459 211.390,185.070 212.060,184.611 213.416 M120.796 217.091 C 120.467 217.481,119.865 218.610,119.458 219.600 C 119.051 220.590,118.556 221.713,118.359 222.095 C 118.162 222.477,118.000 223.062,118.000 223.395 C 118.000 223.728,117.736 224.000,117.413 224.000 C 117.063 224.000,116.915 224.235,117.049 224.583 C 117.172 224.903,116.806 226.464,116.236 228.051 C 115.666 229.638,115.205 231.041,115.212 231.168 C 115.244 231.767,116.240 229.517,117.403 226.219 C 118.772 222.340,120.759 217.965,121.343 217.546 C 121.538 217.407,121.629 217.088,121.546 216.837 C 121.450 216.550,121.172 216.644,120.796 217.091 M285.800 234.295 C 285.800 248.230,286.433 249.744,286.690 236.425 C 286.808 230.316,286.702 226.990,286.328 225.024 C 285.841 222.464,285.800 223.180,285.800 234.295 M195.432 228.800 C 195.743 230.544,197.210 233.279,197.967 233.526 C 198.330 233.645,198.204 233.248,197.615 232.421 C 197.110 231.712,196.356 230.292,195.939 229.266 C 195.261 227.593,195.208 227.545,195.432 228.800 M185.604 231.316 C 185.592 232.265,190.207 239.810,191.409 240.807 C 191.734 241.077,192.000 241.441,192.000 241.616 C 192.000 242.325,200.191 249.600,200.990 249.600 C 201.684 249.600,200.193 247.939,198.984 247.366 C 198.211 246.999,196.886 245.912,196.039 244.949 C 195.192 243.987,194.362 243.200,194.195 243.200 C 193.428 243.200,188.400 236.466,188.400 235.437 C 188.400 235.124,188.253 234.807,188.072 234.733 C 187.892 234.660,187.264 233.790,186.676 232.800 C 186.088 231.810,185.606 231.142,185.604 231.316 M198.417 234.200 C 198.418 234.420,199.035 235.285,199.789 236.122 C 200.543 236.958,201.259 237.956,201.381 238.339 C 201.502 238.722,202.816 239.732,204.301 240.585 C 205.785 241.437,207.270 242.345,207.600 242.602 C 207.930 242.858,208.830 243.313,209.600 243.611 C 210.370 243.910,211.091 244.255,211.201 244.377 C 211.737 244.970,214.810 246.366,216.122 246.612 C 216.935 246.764,217.600 247.029,217.600 247.201 C 217.600 247.545,219.136 248.016,221.000 248.245 C 221.810 248.344,222.019 248.277,221.642 248.037 C 221.194 247.751,221.233 247.646,221.842 247.505 C 222.259 247.407,221.790 247.313,220.800 247.295 C 219.792 247.277,217.944 246.798,216.600 246.206 C 215.280 245.624,213.525 244.863,212.700 244.514 C 211.875 244.164,211.200 243.726,211.200 243.539 C 211.200 243.353,210.843 243.200,210.407 243.200 C 209.122 243.200,203.187 238.967,200.708 236.282 C 199.448 234.917,198.417 233.980,198.417 234.200 M261.375 234.937 C 260.363 236.354,256.492 240.680,255.145 241.899 C 253.356 243.516,247.889 246.449,245.200 247.235 C 244.210 247.524,243.298 247.908,243.172 248.087 C 243.047 248.266,242.237 248.507,241.372 248.622 C 236.564 249.262,236.587 249.261,237.200 248.814 C 237.657 248.480,237.513 248.450,236.600 248.688 C 235.940 248.860,233.024 249.000,230.121 249.000 C 226.874 249.000,225.180 249.128,225.721 249.333 C 226.204 249.516,230.020 249.588,234.200 249.493 L 241.800 249.319 245.600 247.795 C 247.690 246.956,249.490 246.144,249.600 245.989 C 249.710 245.834,250.204 245.582,250.698 245.428 C 251.191 245.274,251.828 244.934,252.113 244.674 C 253.022 243.842,254.365 243.200,255.195 243.200 C 255.659 243.200,256.000 242.935,256.000 242.573 C 256.000 242.228,256.585 241.373,257.300 240.672 C 258.015 239.971,259.140 238.698,259.800 237.843 C 260.460 236.987,261.326 235.942,261.725 235.519 C 262.124 235.096,262.383 234.548,262.300 234.300 C 262.218 234.053,261.801 234.339,261.375 234.937 M113.668 238.840 C 113.100 242.906,113.039 252.800,113.582 252.800 C 113.817 252.800,113.880 250.758,113.744 247.500 C 113.577 243.492,113.672 241.581,114.135 239.663 C 114.481 238.225,114.615 236.768,114.442 236.303 C 114.227 235.722,114.000 236.467,113.668 238.840 M267.416 241.281 C 266.025 243.635,262.283 247.190,256.177 251.957 C 255.945 252.138,255.135 252.494,254.377 252.746 C 252.799 253.273,248.650 255.583,248.876 255.810 C 249.188 256.121,256.925 252.001,258.921 250.461 C 262.881 247.406,268.927 240.793,268.318 240.184 C 268.230 240.096,267.824 240.590,267.416 241.281 M285.522 248.400 C 284.819 253.084,284.804 253.460,285.409 251.200 C 285.733 249.990,285.952 248.460,285.895 247.800 C 285.810 246.811,285.744 246.917,285.522 248.400 M222.400 248.553 C 222.400 248.908,224.018 249.094,224.223 248.762 C 224.346 248.563,223.987 248.400,223.424 248.400 C 222.861 248.400,222.400 248.469,222.400 248.553 M202.600 250.612 C 203.260 251.153,204.070 251.590,204.400 251.582 C 204.730 251.574,204.500 251.297,203.888 250.965 C 203.277 250.633,202.882 250.191,203.012 249.981 C 203.141 249.771,202.832 249.606,202.324 249.614 C 201.431 249.628,201.441 249.662,202.600 250.612 M205.200 252.268 C 205.530 252.380,206.610 252.840,207.600 253.289 C 210.799 254.739,214.463 256.025,214.204 255.607 C 214.066 255.383,213.766 255.200,213.537 255.200 C 213.308 255.200,212.554 254.943,211.860 254.630 C 207.146 252.497,205.897 252.004,205.288 252.032 C 204.743 252.057,204.725 252.106,205.200 252.268 M113.206 254.620 C 113.209 255.049,113.479 256.210,113.806 257.200 L 114.399 259.000 114.159 256.800 C 113.926 254.670,113.193 252.993,113.206 254.620 M283.786 256.881 C 283.395 258.486,282.744 260.775,282.337 261.966 C 281.931 263.157,281.670 264.203,281.758 264.291 C 281.929 264.462,283.598 259.435,284.414 256.289 C 284.687 255.237,284.817 254.284,284.703 254.170 C 284.589 254.055,284.176 255.276,283.786 256.881 M216.800 256.600 C 217.350 256.914,218.160 257.177,218.600 257.183 C 219.239 257.193,219.169 257.075,218.254 256.598 C 216.740 255.808,215.418 255.810,216.800 256.600 M220.800 257.606 C 224.068 258.511,231.076 259.210,234.300 258.953 C 239.132 258.568,238.326 258.179,233.018 258.334 C 230.497 258.408,227.212 258.261,225.717 258.009 C 221.572 257.309,218.952 257.094,220.800 257.606 M240.800 257.832 L 238.600 258.375 240.779 258.163 C 241.977 258.047,243.237 257.788,243.579 257.588 C 244.464 257.070,243.575 257.148,240.800 257.832 M114.434 260.600 C 114.422 261.040,114.587 261.670,114.800 262.000 C 115.314 262.795,115.314 261.796,114.800 260.600 L 114.456 259.800 114.434 260.600 M115.394 264.900 C 115.552 265.395,115.959 266.880,116.298 268.200 C 116.637 269.520,117.319 271.590,117.814 272.800 C 118.308 274.010,118.926 275.675,119.187 276.500 C 119.448 277.325,119.918 278.000,120.231 278.000 C 120.544 278.000,120.800 278.270,120.800 278.600 C 120.800 278.930,120.980 279.200,121.200 279.200 C 121.789 279.200,121.694 278.846,120.800 277.709 C 120.360 277.150,120.000 276.486,120.000 276.234 C 120.000 275.982,119.354 274.251,118.563 272.388 C 117.773 270.525,116.776 267.875,116.347 266.500 C 115.919 265.125,115.464 264.000,115.337 264.000 C 115.210 264.000,115.236 264.405,115.394 264.900 M280.500 267.488 C 280.055 268.540,279.557 269.850,279.392 270.400 C 279.227 270.950,278.846 271.755,278.546 272.189 C 277.842 273.206,277.842 273.829,278.547 273.244 C 278.847 272.995,279.413 271.758,279.803 270.495 C 280.193 269.233,280.770 267.688,281.086 267.063 C 281.401 266.437,281.580 265.847,281.484 265.751 C 281.388 265.654,280.945 266.436,280.500 267.488 M277.182 275.101 C 276.878 275.705,276.295 276.695,275.887 277.300 C 275.075 278.504,275.377 278.826,276.263 277.700 C 276.925 276.858,278.066 274.333,277.873 274.139 C 277.797 274.063,277.486 274.496,277.182 275.101 M272.800 282.260 C 271.590 284.107,270.240 286.020,269.800 286.512 C 269.360 287.004,268.286 288.293,267.414 289.376 C 264.549 292.932,258.229 298.978,253.067 303.100 C 250.095 305.473,248.326 307.126,248.797 307.090 C 249.239 307.057,249.600 306.802,249.600 306.523 C 249.600 306.244,250.275 305.663,251.100 305.231 C 251.925 304.800,253.454 303.626,254.499 302.623 C 255.543 301.620,256.685 300.800,257.036 300.800 C 257.387 300.800,257.769 300.440,257.884 300.000 C 257.999 299.560,258.262 299.200,258.469 299.200 C 258.675 299.200,259.904 298.120,261.200 296.800 C 262.496 295.480,263.734 294.400,263.951 294.400 C 264.168 294.400,264.448 294.080,264.572 293.689 C 264.696 293.298,265.698 292.033,266.799 290.879 C 267.899 289.725,268.800 288.671,268.800 288.536 C 268.800 288.402,269.207 287.911,269.705 287.446 C 270.202 286.981,271.457 285.250,272.493 283.600 C 273.529 281.950,274.575 280.369,274.817 280.086 C 275.059 279.804,275.200 279.421,275.129 279.237 C 275.058 279.053,274.010 280.413,272.800 282.260 M121.600 279.868 C 121.600 280.101,121.924 280.721,122.320 281.246 C 122.715 281.771,123.810 283.495,124.752 285.078 C 126.531 288.067,127.434 289.099,127.880 288.653 C 128.024 288.509,127.874 288.169,127.548 287.896 C 127.221 287.623,126.424 286.608,125.777 285.641 C 122.354 280.523,121.600 279.482,121.600 279.868 M128.000 289.497 C 128.000 290.080,137.106 299.600,137.664 299.600 C 137.849 299.600,138.000 299.870,138.000 300.200 C 138.000 300.530,138.272 300.800,138.604 300.800 C 138.936 300.800,139.772 301.340,140.463 302.000 C 141.154 302.660,141.883 303.200,142.083 303.200 C 142.283 303.200,142.346 303.364,142.221 303.565 C 142.097 303.766,142.536 304.170,143.198 304.463 C 143.859 304.756,144.400 305.131,144.400 305.298 C 144.400 305.464,144.611 305.600,144.869 305.600 C 145.126 305.600,145.667 305.899,146.071 306.264 C 146.475 306.630,146.879 306.855,146.969 306.764 C 147.059 306.674,145.663 305.521,143.866 304.202 C 142.070 302.882,137.765 298.986,134.300 295.543 C 130.835 292.100,128.000 289.379,128.000 289.497 M149.200 308.459 C 149.970 309.245,151.275 310.107,152.100 310.375 C 152.925 310.643,153.600 311.021,153.600 311.216 C 153.600 311.410,154.312 311.761,155.182 311.995 C 156.052 312.229,157.044 312.701,157.386 313.043 C 157.727 313.385,158.212 313.596,158.462 313.513 C 158.713 313.429,157.586 312.666,155.959 311.817 C 154.331 310.968,152.100 309.706,151.000 309.014 C 149.900 308.321,148.730 307.592,148.400 307.393 C 148.070 307.194,148.430 307.674,149.200 308.459 M245.400 308.641 C 244.300 309.410,241.961 310.793,240.203 311.714 C 237.992 312.873,237.244 313.436,237.776 313.539 C 238.200 313.620,238.739 313.425,238.974 313.105 C 239.501 312.384,241.744 311.200,242.580 311.200 C 242.921 311.200,243.200 311.034,243.200 310.831 C 243.200 310.628,243.799 310.264,244.531 310.023 C 245.499 309.703,248.307 307.066,247.512 307.222 C 247.450 307.234,246.500 307.873,245.400 308.641 M235.599 314.218 C 235.050 314.522,233.700 315.071,232.600 315.438 C 231.500 315.806,230.411 316.254,230.180 316.435 C 229.949 316.616,228.149 317.307,226.180 317.970 C 224.032 318.694,223.240 319.080,224.200 318.936 C 225.771 318.701,229.452 317.354,234.200 315.275 C 236.977 314.059,236.987 314.054,236.766 313.833 C 236.674 313.741,236.149 313.914,235.599 314.218 M160.000 314.400 C 160.000 314.620,160.326 314.800,160.725 314.800 C 161.123 314.800,161.798 315.115,162.225 315.500 C 162.651 315.885,163.359 316.263,163.797 316.340 C 164.235 316.417,165.081 316.732,165.677 317.040 C 166.273 317.348,167.140 317.600,167.604 317.600 C 168.068 317.600,168.336 317.780,168.200 318.000 C 168.064 318.220,168.188 318.412,168.476 318.427 C 170.194 318.516,171.779 318.872,172.797 319.398 C 173.437 319.729,174.464 319.986,175.080 319.968 L 176.200 319.937 175.000 319.539 C 174.340 319.320,173.440 318.999,173.000 318.825 C 172.560 318.651,170.400 317.917,168.200 317.195 C 166.000 316.473,163.351 315.459,162.313 314.941 C 160.189 313.881,160.000 313.837,160.000 314.400 M178.000 320.600 C 178.770 320.897,179.850 321.141,180.400 321.143 C 180.979 321.145,180.558 320.912,179.400 320.591 C 176.878 319.890,176.170 319.895,178.000 320.600 M214.283 321.204 C 213.668 321.389,212.003 321.664,210.583 321.817 C 209.162 321.969,208.000 322.256,208.000 322.454 C 208.000 322.653,208.405 322.731,208.900 322.627 C 209.395 322.524,211.329 322.146,213.199 321.787 C 216.510 321.152,217.717 320.765,216.167 320.834 C 215.745 320.853,214.897 321.020,214.283 321.204 M182.400 321.600 C 182.950 321.776,183.880 321.938,184.467 321.960 C 185.053 321.982,185.594 322.181,185.667 322.402 C 185.750 322.649,189.341 322.866,195.001 322.965 L 204.200 323.126 196.600 322.791 C 192.420 322.607,187.470 322.174,185.600 321.829 C 181.987 321.162,180.757 321.074,182.400 321.600 " stroke="none" fill="#04162d" fill-rule="evenodd"></path></g></svg>